<?xml version="1.0" standalone="no"?>
<!DOCTYPE svg PUBLIC "-//W3C//DTD SVG 1.1//EN" "http://www.w3.org/Graphics/SVG/1.1/DTD/svg11.dtd" >
<svg xmlns="http://www.w3.org/2000/svg" xmlns:xlink="http://www.w3.org/1999/xlink" version="1.1">
<metadata></metadata>
<defs>
<font id="kindergartenmedium" horiz-adv-x="737" >
<font-face units-per-em="2048" ascent="1638" descent="-410" />
<missing-glyph horiz-adv-x="921" />
<glyph horiz-adv-x="0" />
<glyph unicode="&#xd;" horiz-adv-x="681" />
<glyph unicode=" "  horiz-adv-x="921" />
<glyph unicode="&#x09;" horiz-adv-x="921" />
<glyph unicode="&#xa0;" horiz-adv-x="921" />
<glyph unicode="!" horiz-adv-x="413" d="M102 647q-2 55 4 113q4 49 7 92q2 49 8 112.5t12 112.5q6 41 6 56q-2 23 -2 34l-2 15q-2 29 17.5 52t49 26.5t53.5 -16t28 -50.5v-12q2 -14 4 -39q2 -31 -6 -86q-8 -47 -13.5 -105.5t-7.5 -103.5q-2 -49 -6 -105q-6 -45 -4 -88q4 -47 10 -108q8 -70 8 -129v-58 q0 -29 -21.5 -51t-52 -22t-52 22.5t-21.5 50.5v58q0 51 -6 110q-8 68 -13 119zM160 67q0 31 20.5 52.5t52 21.5t52.5 -20l6 -8q20 -20 20 -51t-20.5 -52.5t-51 -21.5t-53.5 22l-6 6q-20 20 -20 51z" />
<glyph unicode="&#x22;" horiz-adv-x="749" d="M104 1305.5q-8 29.5 7.5 55t45 34t56.5 -5.5l25 -15q33 -18 75 -57q66 -53 70 -115q2 -49 -18 -102q-12 -31 -17 -60q-4 -37 -4 -73q-2 -53 -20 -88l-11 -21q-12 -27 -41.5 -37t-56.5 3.5t-37 43t4 56.5l11 20q2 8 4 31q2 41 6 82q6 47 24 96q8 20 9 35q-6 8 -17 16 q-35 31 -53 41l-27 15q-27 16 -35 45.5zM460 797.5q-7 29.5 7 56.5l16 25q6 12 9 30q4 33 6 86t2 92q0 33 -4 52l-7 26q-6 29 10.5 54.5t46 33t55.5 -9t32 -45.5l6 -27q8 -35 8 -84q0 -43 -2 -99t-6 -91q-4 -53 -29 -92l-16 -27q-14 -27 -44 -34t-56.5 8.5t-33.5 45z" />
<glyph unicode="#" horiz-adv-x="1226" d="M102 545.5q4 29.5 29 49t53 15.5l23 -2q14 -2 39 0q29 4 71 0q2 12 2 23q8 72 35 155q-25 0 -45 15.5t-26 38.5q-8 31 7 57.5t44 34.5l65 16q6 2 15 4q4 14 8 27q18 51 22 108q6 57 5 74l-3 27q-4 29 15.5 53.5t49.5 27.5t54.5 -16.5t26.5 -50.5l4 -24q2 -33 -4 -105 q-4 -55 -21 -108h2q84 -4 209 -11q4 29 6 54q6 45 7 67l-2 31q-2 31 19.5 53.5t51 24.5t52 -19.5t24.5 -50.5l2 -31q2 -39 -6 -96q-2 -16 -4 -37h41q41 2 53 4l12 2q31 6 55.5 -12t30.5 -48t-12 -54.5t-47 -30.5l-12 -2q-18 -4 -76 -6h-64q-12 -63 -41 -148q-14 -39 -24 -80 h8q31 -2 51.5 -25.5t18.5 -53t-25.5 -50t-52.5 -18.5l-35 2q0 -6 -2 -12q-23 -121 -25 -205q-2 -78 9 -125l12 -55q8 -29 -8.5 -55.5t-46 -32.5t-55 9t-33.5 46l-13 55q-16 63 -12 164q4 90 27 219q-31 2 -66 4q-76 4 -143 9v-11q-2 -98 -2 -161v-246q0 -29 -21.5 -51.5 t-52.5 -22.5t-52.5 22.5t-21.5 51.5v246q0 63 2 163v19q-37 2 -47 2q-41 -6 -72 -2l-22 4q-31 2 -50.5 26.5t-15.5 54zM465 598q68 -6 141 -8q51 -2 92 -6q14 61 35 118q19 58 29 107q-117 4 -195 8h-45q-6 -20 -14 -43q-33 -88 -41 -160q0 -8 -2 -16z" />
<glyph unicode="&#x26;" horiz-adv-x="1351" d="M109 246q-14 84 4 135q20 55 94 111q57 43 88 63q45 31 121 45q47 8 88 25q-27 51 -47 94q-47 106 -51 174q-2 63 16 131q23 82 94 127q47 29 59 37q29 20 64 22t63 -2q86 -6 148 -49q59 -43 78 -88q8 -23 10 -42t-6 -45t-12.5 -34t-18.5 -41q-35 -78 -74 -147 q-41 -76 -116 -156q-6 -8 -17 -16q0 -2 2 -4l2 -2q50 -80 101 -146q2 10 4 17q10 47 18 82q8 37 10 51q8 35 43 53t64 10q20 -4 63 -24l37 -17q29 -12 40.5 -40.5t-1 -56.5t-42 -39t-56.5 1l-18 8q-6 -29 -15 -63q-12 -45 -37 -107q0 -2 -2 -4q31 -29 58 -53 q74 -61 141 -123q68 -61 98 -94l29 -31q18 -23 17 -53.5t-23.5 -51t-53 -18.5t-51.5 23l-28 33q-25 27 -88 84q-66 59 -136 118q-12 10 -22 21q-27 -47 -105 -96q-88 -55 -198 -62q-100 -4 -178 17q-72 18 -111 34q-45 20 -84 56q-47 43 -63 133zM252 332q-4 -16 2 -62 q8 -39 18 -49q18 -18 43 -28q29 -12 88 -27q55 -16 136 -12q70 4 127 39q41 27 53 43q6 18 16 45l-16 20q-69 84 -141 197q-4 -2 -7 -4q-59 -27 -131 -39q-43 -8 -61 -21q-29 -20 -84 -61q-35 -27 -43 -41zM553 899q2 -39 39 -119q10 -26 26 -57q51 57 80 108q35 66 70 140 q12 31 18 49q-10 8 -24 20q-25 18 -68 21q-29 2 -43 0q-20 -12 -57 -35q-23 -14 -31 -41q-12 -45 -10 -86z" />
<glyph unicode="'" horiz-adv-x="516" d="M106 860l5 21q6 14 16 65q14 59 35 105q23 45 69 104q29 35 35 49v13l-2 10q-8 29 7.5 56.5t44 35.5t56 -7.5t36.5 -43.5l2 -15q10 -31 0 -77q-8 -47 -64 -113q-37 -45 -51 -75t-25 -75q-12 -55 -18 -77l-6 -19q-8 -29 -36 -43t-56.5 -5t-43 35.5t-4.5 55.5z" />
<glyph unicode="(" horiz-adv-x="763" d="M102 295q-2 104 13 270q12 172 53 301q37 127 78 234q45 113 119 209q53 68 65 86l4 10q12 29 41 39t56.5 -1t39 -40t-1.5 -57l-4 -13q-10 -20 -84 -114q-61 -80 -96 -172q-41 -102 -76 -222q-35 -117 -49 -272q-12 -160 -10 -256q2 -82 53 -180q57 -111 84 -154 q18 -33 68 -76q66 -53 88 -80q10 -12 24 -22q27 -16 47 -31l19 -12q25 -18 30 -49t-13.5 -55.5t-48.5 -28.5t-54 12l-19 14q-16 10 -39 25q-35 23 -61 53q-12 16 -68 62q-70 59 -100 112q-27 45 -88 162q-68 129 -70 246z" />
<glyph unicode=")" horiz-adv-x="899" d="M104.5 -258q8.5 29 35 44t55.5 9l45 -12q12 -4 20 2q35 23 80 59q37 29 76 95q45 82 98 163q45 74 68 146q23 78 51 192q25 100 14 162q-12 72 -50 202t-79 224q-35 84 -108 152q-80 72 -150 112l-76 43q-27 14 -35 44t7.5 56.5t45 35t56.5 -8.5l76 -43q84 -47 174 -131 q98 -88 145 -203q45 -102 85 -240t55 -218q16 -92 -17 -221q-29 -117 -53 -201q-27 -90 -84 -180q-51 -82 -96 -158q-51 -92 -111 -139q-51 -39 -90 -66q-66 -43 -141 -22l-43 12q-29 8 -45.5 34.5t-8 55.5z" />
<glyph unicode="+" horiz-adv-x="1126" d="M104.5 629.5q-6.5 29.5 10 55.5t45.5 32l41 8q51 12 143 2q78 -8 172 -16v288q0 31 21.5 52.5t51 21.5t52.5 -21.5t23 -52.5v-294q55 4 127 18q70 10 100 22l35 13q29 12 56.5 -1.5t38.5 -42t-2 -56t-42 -37.5l-37 -15q-41 -14 -123 -28q-80 -14 -143 -19q-4 -2 -10 -2 q-2 -37 -2 -72q0 -88 -5 -159l-4 -72q-2 -29 -25.5 -49.5t-53 -19.5t-50 24.5t-18.5 54.5l4 70q4 68 4 151q0 39 2 76q-6 0 -10 2q-96 8 -176 17q-70 8 -99 2l-41 -9q-29 -6 -54 10.5t-31.5 46z" />
<glyph unicode="," horiz-adv-x="573" d="M102 -116.5q0 30.5 22.5 51t53.5 20.5h15q10 0 43 6q0 6 2 12q6 41 28 78q18 31 47 68q8 10 13 16l-11 15q-18 23 -14 53t27.5 48.5t54.5 14.5t49 -26l12 -17q29 -37 29 -88q0 -53 -43 -108q-25 -31 -37 -52q-8 -12 -10 -24q-4 -29 -12 -53q-16 -63 -107 -82 q-53 -10 -76 -9h-14q-31 0 -51.5 23t-20.5 53.5z" />
<glyph unicode="-" d="M106.5 499.5q-10.5 28.5 3 56.5t42.5 38l18 8q25 8 90 25q66 14 119 20q51 4 86 4l31 4q35 10 65 7l12 -3q31 -6 48.5 -30.5t13.5 -54t-29.5 -48t-54.5 -14.5l-10 2q-27 -8 -70 -10q-31 0 -80 -4q-43 -4 -98 -17q-55 -14 -72 -20l-20 -6q-29 -10 -56.5 2t-38 40.5z" />
<glyph unicode="." horiz-adv-x="360" d="M106 160l11 30q8 29 35.5 42.5t56.5 4t43 -37t4 -56.5l-10 -30q-10 -29 -37 -42.5t-55.5 -4t-43 37t-4.5 56.5z" />
<glyph unicode="/" horiz-adv-x="907" d="M104.5 87q8.5 30 34.5 44l25 14q12 8 39 43q35 47 76 115q39 63 75 168q37 106 58 193q25 96 80 192q45 80 67 170q25 104 53 168q23 55 33 84q8 25 12 37l2 16q6 31 32 47.5t55.5 11t47 -31t11.5 -55.5l-4 -19q-4 -23 -17 -55q-12 -33 -36 -94q-23 -51 -46 -144 q-27 -109 -84 -207q-45 -80 -63 -155q-23 -92 -61 -205q-41 -121 -88 -197q-45 -74 -84 -127q-45 -59 -84 -82l-25 -14q-27 -14 -56.5 -7t-45 33.5t-7 56.5z" />
<glyph unicode="0" horiz-adv-x="1189" d="M102 791q-2 84 23 167q27 92 96 170q68 78 172 129q100 49 182 60.5t130 3.5q51 -10 120 -55q70 -45 142 -140q72 -94 94 -174q23 -76 24 -170q4 -88 2 -159q0 -78 -22 -197q-25 -131 -74 -190q-29 -37 -43 -78q-29 -76 -100 -115q-51 -29 -78 -41q-43 -16 -123 -8 q-55 4 -67 4h-23l-4 -8q-18 -25 -49 -29t-55 14l-35 25q-51 39 -78 102q-18 43 -60 125q-45 86 -79 176q-35 90 -64 197q-29 111 -31 191zM250 795q2 -63 26 -158q25 -96 58 -180q33 -82 74 -164q43 -86 63 -133q6 -15 14 -25q31 25 68 15l12 -5h8q23 0 89 -6q37 -2 53 0 q20 10 61 33q23 12 33 37q23 63 68 119q25 31 43 125q20 106 20 172q2 70 -2 151q-2 76 -18 135q-16 53 -72 125q-55 74 -103 105q-47 31 -67 35q-25 4 -82 -4.5t-137 -47.5q-78 -39 -127 -94q-47 -53 -66 -112q-16 -63 -16 -123z" />
<glyph unicode="1" horiz-adv-x="669" d="M102 1206l4 27q6 63 72 104q43 29 76 41q16 4 20 8q35 25 58.5 24t39 -19.5t23.5 -40t13 -39.5l4 -19q4 -53 4 -145q2 -90 2 -148q2 -55 14 -159q14 -104 27 -168q12 -68 22 -148q8 -80 15 -127q4 -45 14 -94q12 -53 27 -113q12 -59 20 -92q8 -39 10 -59v-12 q0 -31 -20.5 -53.5t-50 -23.5t-52 20.5t-24.5 49.5v15q0 6 -6 28q-8 35 -23 95q-12 61 -24 112q-12 57 -19 111q-4 47 -14 125q-8 76 -21 139q-12 66 -26 176q-14 113 -17 174q0 59 -2 150q0 41 -2 76q-4 -4 -8 -7q-4 -2 -6 -4l-2 -20q-4 -31 -27.5 -49.5t-53.5 -15.5 t-49.5 27t-17.5 54z" />
<glyph unicode="2" horiz-adv-x="1062" d="M106.5 954.5q-10.5 28.5 2.5 55.5l30 67q37 78 88 129q35 35 47 62q33 66 117 90q59 16 117 16q59 2 127 -20q72 -20 149 -86q84 -68 121 -170q29 -84 43 -133q23 -72 2 -121q-10 -27 -30 -70q-23 -49 -62 -98q-37 -53 -106 -111q-68 -57 -134 -96q-55 -33 -123.5 -81 t-107.5 -81q-25 -20 -49 -41q25 0 53 -2q117 -2 189 -2q76 -2 145 -6q63 -6 76 -6h16q29 0 51.5 -21.5t21.5 -51.5t-22.5 -52.5t-52.5 -22.5h-14q-18 0 -88 7q-63 4 -135 6q-72 0 -191 2q-119 4 -168 10q-12 2 -29.5 10t-40 24.5t-27.5 41t7 59.5q18 37 76 84q45 37 88 74 t115.5 88t136.5 88q53 33 110 82q57 47 86 85t45 73q18 39 27 61q0 8 -4 25q-14 45 -43 127q-23 63 -74 104q-57 47 -100 61q-47 12 -82 13q-39 0 -80 -10q-18 -6 -22 -15q-25 -49 -76 -100q-33 -33 -58 -88l-30 -66q-14 -27 -43 -38t-56.5 2.5t-38 42z" />
<glyph unicode="3" horiz-adv-x="1116" d="M103 1026q-3 31 16 55l49 60q47 55 68 88q37 53 106 80q45 16 74 28q53 23 168 4q111 -18 194 -69q78 -47 144 -107q80 -74 90 -159q10 -76 -17 -172q-31 -113 -102 -150q-27 -14 -62 -22q4 -6 7 -11q29 -51 69 -108q59 -80 60 -152q-2 -66 -47 -137q-35 -55 -74 -113 q-51 -72 -135 -108q-80 -33 -150 -31t-153 41q-96 43 -129 113q-27 57 -29 110q-2 39 -2 80v37q0 31 21.5 52.5t52 21.5t52 -21.5t21.5 -52.5v-37q0 -37 2 -74q0 -23 15 -55q10 -18 55 -39q57 -27 98 -28q39 -2 88 18q45 20 72 57q37 55 70 107q23 37 24 61q0 23 -31 62 q-47 66 -79 127q-14 25 -39 47q-12 12 -31 24q-29 4 -53 11q-66 16 -97 28q-4 0 -11 2t-21.5 17.5t-16.5 46.5q-4 37 6.5 59.5t29 27.5t36.5 5t33 -4l14 -6q61 -4 129 -43h47q59 2 88 18q16 8 31 57q18 68 12 113q-4 35 -45 72q-53 49 -119 90q-61 35 -141 49q-66 10 -88 6 q-33 -14 -80 -33q-25 -8 -35 -22q-25 -39 -75 -100l-50 -60q-20 -23 -50.5 -26t-53.5 15.5t-26 49.5z" />
<glyph unicode="4" horiz-adv-x="976" d="M104 432q8 25 27 78q23 68 94 147q57 68 131 168t101 156q33 66 100 156q2 2 13.5 16t14.5 18.5t12 16.5t13 16t13.5 12.5t15.5 12.5t14.5 10t17.5 9t19 5q49 12 84 -19.5t43 -72.5q8 -45 10 -117q0 -68 -4 -202q-4 -129 4 -244q2 -24 4 -49q31 -16 39 -45 q8 -25 -1 -48.5t-29 -37.5q0 -23 2 -47q4 -111 -6 -199l-11 -82q-4 -31 -28.5 -49t-54 -15t-49 27.5t-15.5 52.5l10 84q10 76 6 177q0 14 -2 30q-18 0 -39 -4q-47 -6 -118 -10q-63 -2 -134 -16q-70 -14 -120 -31q-61 -18 -86 -21q-53 -6 -77 39t-14 78zM285 492q41 10 88 18 q78 16 153 20q66 4 107 11q26 2 51 4q-2 23 -2 43q-10 123 -6 258q4 131 4 194q0 4 -2 13q-2 -4 -4 -6q-57 -78 -86 -132q-33 -66 -111 -176q-78 -106 -141 -180q-33 -37 -51 -67z" />
<glyph unicode="5" horiz-adv-x="985" d="M102 872q2 72 0 162q-2 80 2 148q4 74 19 121q18 63 53 88q27 18 58.5 21t52.5 -1q49 -4 156.5 -20.5t191.5 -34.5q86 -16 145 -37l54 -16q29 -10 42 -38t3.5 -56.5t-37 -42t-56.5 -5.5l-53 19q-49 16 -127 32q-80 16 -184 31q-104 16 -148 21h-10v-4q-10 -31 -12 -86 q-4 -61 -2 -144q2 -86 0 -164v-16q16 10 35 22q90 53 166 58q66 4 88 0q16 -4 31.5 -12.5t23.5 -14.5t25.5 -21.5t27.5 -25.5q82 -70 103 -158q16 -70 24 -150.5t6 -164.5q-2 -78 -6 -143q-4 -74 -22 -117q-27 -57 -107 -92q-66 -29 -145 -29q-80 -2 -125 16q-37 16 -86 50 q-57 41 -82 94q-23 47 -31 114q-6 61 -6 93v26q0 29 21.5 51.5t51 22.5t52 -22.5t22.5 -51.5v-26q0 -23 7 -74q4 -45 16 -70q8 -18 33 -37q37 -25 59 -34q16 -6 66 -7q51 2 90 19q20 10 28 18q8 18 11 64q4 61 6 139q0 74 -6 146.5t-21 132.5q-8 41 -53 77q-35 29 -51 41 h-43q-37 -2 -97 -39q-74 -43 -102 -63q-14 -10 -35.5 -16.5t-50.5 1t-47 33.5q-14 20 -18 48q-8 45 -7 124z" />
<glyph unicode="6" horiz-adv-x="1177" d="M104 651q-6 68 5 127q16 82 51 158q31 63 51 127q23 76 55 135q37 68 105 119q68 49 137 72q70 20 170 16q102 -4 182 -45q76 -37 117 -78q35 -33 55 -53l21 -21q20 -23 20 -53.5t-21.5 -51t-52 -20.5t-53.5 23l-18 20q-20 18 -54 52q-25 23 -79 51q-51 25 -123 28 q-76 2 -121 -10q-47 -14 -90 -49q-43 -31 -66 -70q-25 -49 -45 -110q-23 -72 -57 -144q-27 -59 -39 -122q-2 -9 -2 -17q49 -10 65 -8q18 0 48 4q33 6 71 10q37 4 94 7q51 2 111 6q68 6 125 -2q59 -8 98 -27q41 -18 94 -74q53 -57 93 -157q41 -111 16 -183q-20 -59 -61 -108 q-43 -53 -105 -80q-51 -23 -102 -29q-43 -6 -92 -8q-43 -2 -82 -4q-45 -2 -107 8q-61 12 -112 35q-55 27 -117 94q-59 66 -105.5 160t-68.5 201q-6 37 -11 71zM266 584q16 -74 49 -140q37 -76 82 -127q43 -45 72 -59q33 -14 76 -22q45 -8 73 -7q39 0 82 2q41 2 78 9 q31 4 66 20q27 10 47 35q25 29 37 63q6 23 -17 84q-27 72 -59 107q-35 35 -53 43q-16 10 -54 14q-39 6 -92 2q-61 -6 -118 -8q-51 -2 -82 -6q-35 -2 -66 -8q-37 -6 -63 -6q-23 -2 -58 4z" />
<glyph unicode="7" horiz-adv-x="1085" d="M103.5 1232q-5.5 30 12 55.5t48.5 31.5l47 8q51 8 104.5 13.5t153.5 7.5q96 0 184 2q90 2 159 -2.5t97 -8.5q35 -10 56.5 -37.5t19.5 -64.5q-2 -12 -6 -24.5t-8 -19.5t-12.5 -17.5t-12.5 -13.5t-15 -13t-13 -12q-29 -25 -41 -62q-18 -49 -31 -112q-18 -80 -43 -166 q-23 -84 -53 -191q-29 -100 -35 -162q-8 -70 -23 -149q-14 -88 -37 -141q-16 -39 -20 -60l-6 -22q-8 -29 -35 -44.5t-56.5 -7t-45 35t-7.5 55.5l7 22q8 29 28 78q16 37 27 106q14 78 20 144q8 74 41 186q29 106 54 191q23 80 38 155q16 72 37 131q14 43 41 78q-53 2 -123 0 q-88 -2 -186 -2q-94 -2 -140 -6t-91 -12l-50 -8q-29 -6 -54 11t-30.5 47z" />
<glyph unicode="8" horiz-adv-x="1048" d="M109 406q-18 66 20 145q25 47 35 78q18 53 55 86q33 28 107 57q-27 66 -31 131q-2 55 0 121q2 70 8 121q10 59 29 102q29 59 106 86q63 20 158 13q98 -10 147 -43q31 -23 72 -52q55 -41 86 -108q27 -61 35 -142q6 -70 10 -129q2 -61 2 -98q-2 -53 -24 -92 q-25 -45 -93 -66q6 -6 13 -12q59 -57 76 -131q16 -61 14 -108q-2 -53 -31 -109q-35 -63 -121 -98q-72 -29 -166 -35q-90 -6 -176 6q-92 12 -178 66q-92 57 -121 120q-20 47 -32 91zM250 446q10 -33 26 -71q10 -20 64 -53q59 -37 123 -48q70 -10 143 -4q72 4 121 25 q37 14 45 31q14 25 14 43q0 27 -10 69q-6 33 -35 60q-47 47 -67 71l-19 23q-6 8 -12 22q-15 3 -29 7q-16 -23 -43.5 -28t-50.5 9l-71 41q-6 4 -13 8q-16 -2 -63 -18q-43 -16 -56 -27q-8 -8 -14 -24q-14 -41 -43 -99q-12 -27 -10 -37zM442 909q2 -39 19 -80q4 -12 16 -24 l8 -8q14 0 29 -2q18 -2 35 -4q41 -6 69 -19q20 -8 76 -16q25 -4 45 -4q23 0 43 4q8 2 17 4q2 8 2 18q0 31 -2 86q-2 57 -11 123q-6 57 -22 96q-14 31 -37 47q-41 29 -72 52q-16 10 -75 16q-63 6 -97 -4q-16 -6 -20 -10q-10 -25 -14 -60q-8 -45 -9 -104q-2 -61 0 -111z" />
<glyph unicode="9" horiz-adv-x="1058" d="M115 1026q27 84 71 137q41 51 103 99q66 51 135 71q74 20 145 4q72 -16 136 -67q59 -51 108 -152q43 -92 90 -244q20 -70 33 -129q12 -22 10 -47q2 -8 2 -16q4 -29 6 -53q8 -96 -8 -189q-16 -98 -74 -182q-53 -82 -143 -152q-92 -72 -166 -90q-66 -16 -125 -18 q-51 -2 -110 -2l-58 2q-31 0 -52 22.5t-21 52t22.5 51t52.5 21.5l58 -2q55 0 102 2q43 2 96 15q43 10 111 63q70 53 111 117q39 57 51 125q10 63 8 129l-23 -10q-39 -35 -110 -47q-51 -8 -80 -15q-35 -4 -89 -6t-83 2q-23 4 -47.5 15.5t-35.5 18.5t-48 34q-86 61 -107 114 q-14 31 -53 117q-51 113 -18 209zM254 981q-14 -43 14 -104q39 -86 54 -121q10 -16 57 -51q47 -33 65 -41h60q43 0 67 4q29 6 80 14q25 4 35 10q35 29 96 47l4 2q-10 43 -24 93q-43 139 -82 221q-35 72 -70 100q-35 29 -71 37q-37 8 -76 -2q-41 -10 -84 -45q-47 -37 -78 -74 q-29 -35 -47 -90z" />
<glyph unicode=":" horiz-adv-x="448" d="M102.5 921.5q-0.5 30.5 21 52t52.5 21.5t51 -22l6 -6q23 -20 23 -51t-21.5 -52.5t-52 -21.5t-53.5 20l-6 6q-20 23 -20.5 53.5zM195 139q0 31 21.5 52.5t52 21.5t50.5 -20l7 -9q23 -20 22.5 -51t-22 -52.5t-52 -21.5t-53.5 23l-6 6q-20 20 -20 51z" />
<glyph unicode=";" horiz-adv-x="524" d="M104 913.5q5 30.5 29.5 48t55 12.5t47.5 -32l24 -33q16 -25 11 -55.5t-29.5 -48t-55 -12t-47.5 31.5l-24 33q-16 25 -11 55.5zM135 -189.5q-8 29.5 6 56.5l15 27q20 35 88 104q18 18 26 33q-8 14 -22 28q-27 31 -43 39l-25 15q-27 16 -35 45.5t7.5 55.5t45 34t56.5 -8 l25 -15q35 -18 75 -63q47 -49 64 -99q4 -18 5 -34.5t-4 -32.5t-11.5 -28.5t-18.5 -27t-19.5 -22.5t-21.5 -22q-53 -55 -63 -74l-15 -27q-14 -27 -43.5 -35t-56.5 6.5t-35 44z" />
<glyph unicode="=" horiz-adv-x="1175" d="M102 898q4 30 30 48.5t54 14.5l41 -7q35 -6 97 -4q68 0 100 2q33 2 154 13q125 12 188 19t90 11q37 4 100 -4l54 -8q31 -4 49 -28.5t14 -54.5t-28.5 -48t-55.5 -14l-53 8q-43 6 -59 2q-29 -2 -94.5 -9.5t-189.5 -19.5t-161 -14q-39 -2 -106 -2q-72 -2 -119 6l-41 6 q-31 4 -49.5 28.5t-14.5 54.5zM314.5 434.5q-9.5 28.5 5 56t42.5 35.5l50 17q53 16 123 26q66 8 139.5 14.5t144.5 8.5q43 2 62 6l14 6q29 12 57.5 2t41 -37.5t1 -56.5t-38.5 -41l-16 -8q-31 -14 -117 -17q-68 -4 -137.5 -9t-130.5 -13q-57 -8 -100 -23l-49 -14 q-29 -10 -55.5 4.5t-36 43z" />
<glyph unicode="?" horiz-adv-x="827" d="M102 846v33q0 35 2 69q2 45 39 137q35 90 80 146q51 61 148 86q94 27 186 -2q96 -33 133 -105q29 -59 33 -137q4 -70 -2 -121q-12 -74 -78 -121q-39 -29 -61 -49q-12 -12 -17 -22q-6 -27 -10 -66q-4 -41 -4 -55v-57q0 -29 -22.5 -51.5t-52.5 -22.5t-51.5 22.5t-21.5 51.5 v57q0 23 5 72q6 51 16 88q14 51 57 92q31 27 76 59q16 12 18 23q4 35 3 92q-4 49 -19 82q-8 14 -47 27q-49 16 -102 2t-74 -39q-29 -35 -56.5 -104.5t-27.5 -92.5q-2 -31 -2 -61v-33q0 -31 -21.5 -52.5t-52.5 -21.5t-52.5 21.5t-21.5 52.5zM399 129q0 31 21.5 52.5 t52.5 21.5t51 -21l8 -8q20 -20 20.5 -51t-21 -52.5t-52 -21.5t-51.5 23l-6 6q-23 20 -23 51z" />
<glyph unicode="@" horiz-adv-x="1593" d="M102 575q2 92 19 175q18 90 86 176q57 70 100 129q51 72 117 110q61 37 149 68q92 33 193 43q98 10 190 2q100 -10 213 -72q109 -61 148 -106q35 -41 86 -127q57 -92 76 -199q16 -100 12 -196q-6 -98 -37 -189q-33 -90 -88 -158q-53 -66 -113 -104q-51 -37 -86 -55 q-43 -25 -71 -31q-10 -6 -26.5 -2t-23 4t-19.5 7t-17 9t-16.5 11.5t-14.5 11.5q-37 25 -61 61q-37 -14 -78 -12q-57 2 -95 19q-33 14 -88 53q-74 53 -92 155q-16 84 -12 211q6 135 49 203q45 74 154 109q98 33 194 18q92 -14 156 -51l49 -31q8 -4 14 -10q19 -9 31 -27 q16 -25 10 -54.5t-32 -47.5l-72 -47q-61 -41 -84 -72q-20 -31 -35 -84q-12 -47 -2 -88q6 -23 12 -45q39 -31 29 -78l-2 -6q14 -39 37 -55q10 -6 18 -13q6 4 15 9q29 16 75 49q41 29 82 78q39 47 64 114q25 68 28 146q4 80 -10 164q-14 80 -55 147q-47 76 -74 107 q-20 27 -106 73q-84 47 -154 53q-78 6 -164 -2q-82 -8 -157 -34q-76 -27 -121 -54q-41 -25 -76 -71q-45 -61 -102 -135q-47 -57 -60 -115q-14 -68 -14 -146q0 -80 12 -161q10 -76 45 -140q39 -74 55 -106q12 -20 76 -82q61 -59 107 -78q59 -25 88 -39q23 -10 86 -26 q76 -18 102 -29q20 -6 68 -14q49 -8 100 -9q47 -2 78 9q47 16 100 24l47 8q31 4 55.5 -14t30 -48t-13 -54.5t-49.5 -28.5l-47 -8q-41 -6 -78 -19q-53 -18 -123 -16q-66 0 -125 10t-90 21q-23 8 -90 24q-78 20 -113 37q-27 12 -84 37q-70 29 -151 106q-80 78 -103 119 q-18 33 -57 107q-45 86 -61 186q-12 94 -13 186zM700 563q-4 -109 9 -176q10 -47 34 -63q43 -31 62 -39q10 -6 41 -6q10 0 16 2q-10 35 -20 69q-20 78 2 164q20 78 59 131q31 45 94 90q-29 12 -69 19q-59 8 -127 -15q-57 -18 -74 -45q-23 -35 -27 -131z" />
<glyph unicode="A" horiz-adv-x="1259" d="M104.5 69.5q-6.5 30.5 10.5 55.5l24 41q25 37 68 119q41 76 57 170q18 109 62 284q43 176 63 256q23 88 53 142q20 39 62 61q21 12 44 12q21 0 44 -10q29 -12 49.5 -36.5t29.5 -45t21 -59.5q31 -84 60 -162q31 -82 82 -266q49 -172 86 -240q41 -74 94 -178 q51 -96 80 -139q37 -49 49 -72l8 -16q12 -27 2 -55.5t-36.5 -42t-55.5 -4t-43 35.5l-8 17q-6 12 -35 51q-37 51 -92 157q-37 72 -68 129q-14 -2 -27 2l-47 11q-45 8 -112 16q-70 10 -140.5 14.5t-101.5 4.5h-4q-18 -55 -45 -105q-47 -88 -74 -131l-26 -41q-16 -25 -46 -32 t-55.5 9.5t-32 47zM416 469q33 -2 82 -4q76 -6 149 -14q53 -6 92 -15q-20 63 -47 156q-49 176 -78 254q-31 80 -61 166q0 2 -2 8q-10 -27 -19 -62q-20 -80 -63 -253q-35 -142 -53 -236z" />
<glyph unicode="B" horiz-adv-x="1181" d="M105 870q-2 50 -2 88q0 46 3 76q4 49 13 101q10 72 49 114q35 37 90 62q57 27 160 28q94 0 205 -24q119 -25 258 -117q78 -49 119.5 -89t56.5 -91q7 -27 7 -54q0 -58 -32 -122q-45 -86 -170 -166q102 -20 146 -60q61 -55 69 -129q2 -18 2 -38q0 -46 -12 -103 q-18 -88 -94 -178q-74 -86 -207 -156q-112 -60 -214 -60q-28 0 -56 5q-78 13 -121 27q-39 0 -64 28l-4 2q-27 14 -36 44t5 57q4 8 13 16l-4 37q-12 109 -64 223q-47 109 -74 207q-6 23 -10 45q-27 117 -32 227zM252 877q4 -74 18 -154q39 -2 103 -4q106 -4 188 -8h2h4 q53 14 103 32q61 25 114 58q90 57 117 108q15 32 15 55q0 7 -1 13q-2 6 -13 17.5t-38.5 35t-62.5 45.5q-119 76 -209 96q-96 20 -172 21q-72 -2 -101 -14q-29 -14 -43 -29q-8 -10 -12 -35q-6 -49 -12 -96q-2 -22 -2 -57t2 -84zM317 551q16 -49 39 -100q59 -137 74 -267 l8 -65q31 -8 82 -17q15 -2 31 -3q67 0 147 42q106 57 162 123q53 59 64 111q9 44 9 75q0 10 -1 19q-4 20 -23 37q-2 4 -17 9t-49 13.5t-75 12.5q-51 6 -94 10q-58 6 -101 10q-84 -18 -157 -18q-35 0 -68 4q-14 2 -31 4z" />
<glyph unicode="C" horiz-adv-x="1245" d="M102 664v15q0 80 19 177q20 109 63 205q47 106 127 160q78 53 197 59q26 1 50 1q80 0 144 -15q88 -18 193 -88q102 -66 145 -115q2 -4 11.5 -13.5t14.5 -15.5t13 -17t10.5 -20.5t5.5 -26t-3 -30.5l-5 -14q-6 -31 -32.5 -47.5t-55.5 -8.5q-27 6 -43 29t-14 51q-4 6 -12 15 q-31 35 -117 90q-82 53 -143 67q-48 12 -112 12q-20 0 -42 -1q-78 -4 -123 -35q-45 -29 -76 -99q-35 -80 -51 -170q-16 -83 -16 -147v-14q2 -68 46 -215.5t91 -227.5q43 -72 98 -102q42 -25 104 -24q16 0 34 1q98 10 202 50q88 33 131 122q35 72 39 103l-8 26 q-10 29 3.5 56.5t42 38t56 -4t37.5 -42.5l11 -35q6 -18 6 -40t-2 -37t-13.5 -44t-16.5 -40t-21 -46q-70 -143 -213 -197q-123 -45 -240 -55q-25 -2 -48 -2q-99 0 -175 41q-90 49 -154 156q-57 96 -106.5 262t-51.5 252z" />
<glyph unicode="D" horiz-adv-x="1341" d="M104 948q-2 20 -2 40q0 36 7 69q14 70 94 121q61 41 135 67q70 27 149 45q48 11 111 11q51 0 111 -7q135 -18 200 -55q63 -35 152 -123q94 -92 141 -225q16 -49 23.5 -74.5t13.5 -65.5t-4 -61q-16 -53 -92 -147q-70 -90 -152 -160q-74 -61 -110 -96q-39 -41 -76 -72 q-31 -25 -64 -61q-27 -29 -34 -52q-18 -49 -70 -98l-37 -37q-23 -20 -53.5 -19t-50.5 23q-5 3 -9 9q-25 -6 -48 6t-33 34l-33 78q-35 78 -80 205t-72 236q-27 104 -65 225q-43 131 -52 184zM252 967q4 -39 43 -156q41 -127 70 -236q27 -104 67 -223q43 -121 76 -194l22 -54 l7 7q27 27 32 43q18 49 64 98q39 45 76 76q33 27 67 63q41 39 119 105q72 59 133 137q53 68 64 96q0 31 -29 113q-37 100 -105 170q-74 74 -118 98q-43 23 -150 37q-54 7 -97 7t-73 -7q-70 -16 -131 -39q-59 -23 -106 -53q-27 -16 -29 -29q-6 -27 -2 -59z" />
<glyph unicode="E" horiz-adv-x="1351" d="M105.5 642q9.5 30 35.5 44l19 10q35 17 106 17h8q33 0 74 -2q2 47 6 94q8 117 15 188q8 74 18 125q10 47 41 78q33 29 84 35t176 10q119 6 207 14q92 10 158 11h22q57 0 82 -9l23 -6q29 -8 44 -34.5t7 -56.5t-36 -44t-56 -6l-23 6q-14 4 -61 2q-57 0 -146 -8 q-92 -10 -215 -14q-115 -6 -164 -11q-8 -45 -14 -106q-6 -70 -16 -184q-2 -45 -4 -95q51 -2 114 -2q121 0 201 7q70 8 86 10l14 4q29 8 55.5 -7.5t35 -44t-7 -55t-44.5 -34.5l-16 -5q-20 -6 -111 -14q-86 -8 -213 -8q-68 0 -118 2v-2q-1 -68 -1 -122.5t1 -96.5q0 -84 6 -178 q4 -84 8 -111h8q29 0 107 12q88 12 172 13q27 -1 53 -1q52 0 98 3q63 4 115 16q63 14 90 16l20 2q31 2 54.5 -18t26.5 -50t-17.5 -53.5t-50.5 -25.5l-21 -2q-16 -2 -69 -12q-61 -14 -140 -21q-49 -3 -104 -3q-27 0 -55 1q-74 0 -152 -12q-88 -12 -127 -12q-55 0 -94 24 q-43 29 -58 88q-8 35 -12 137q-6 96 -6 185q-1 43 -1 98.5t1 122.5v10q-41 4 -74 4q-31 2 -43 0l-16 -10q-27 -14 -56.5 -5t-44 35.5t-5 56.5z" />
<glyph unicode="F" horiz-adv-x="1269" d="M104.5 469q-6.5 29 10 55.5t45.5 32.5l61 12h4q-20 106 -37 226q-11 85 -11 140q1 43 7 69q16 59 64 126q57 76 151 101q74 20 168 33q92 12 224 20q94 7 156 7q25 0 44 -1q74 -2 96 -6l19 -2q29 -6 47 -30.5t13 -54.5t-29.5 -48.5t-55.5 -11.5l-18 2q-14 2 -76 4 q-21 1 -49 1q-55 0 -137 -5q-125 -8 -213 -21q-86 -12 -152 -28q-43 -12 -69 -48q-33 -46 -41 -76q-3 -10 -3 -30q0 -40 11 -121q14 -109 35 -205q96 31 181 49.5t120 22.5q33 4 53 -2q33 -10 47 -48q8 -20 8 -38q0 -15 -6 -27l-8 -14q-12 -27 -42 -36t-56 3q-8 4 -15 10 q-29 -6 -69 -14q-80 -18 -170 -47q-6 -2 -11 -4q18 -72 45 -158q49 -154 60 -215l10 -57q4 -29 -14.5 -54.5t-48 -30.5t-54 13.5t-30.5 46.5l-9 58q-8 51 -55 196q-27 86 -47 162q-4 0 -6 -2l-62 -12q-29 -6 -54 11t-31.5 46z" />
<glyph unicode="G" horiz-adv-x="1173" d="M102 477q0 98 7 182q6 80 14 170q10 96 35 179q29 94 100 159q66 59 158 101q96 43 192 45q96 0 179 -39t165 -139q78 -96 99 -152l16 -43q12 -27 -1 -55.5t-41 -38.5t-56.5 2t-38.5 41l-17 43q-12 31 -75 108q-61 76 -113.5 100.5t-116.5 24.5q-63 -2 -131 -30 q-72 -33 -121 -76q-41 -39 -57 -92q-20 -70 -29 -152q-8 -88 -14 -168q-6 -76 -6 -170q0 -92 8 -147q8 -57 29 -111q14 -43 53 -76q41 -35 90 -47q49 -14 99 -14h12q55 0 102 14q43 14 88 47q43 29 68 72q31 47 47 92q18 45 24 84q6 31 4 45q-2 8 -12 19q-18 20 -69 53 q-53 33 -99 49q-49 18 -82 27q-39 10 -67 22l-27 8q-29 10 -42 39t-3 56.5t38 41t56 3.5l27 -11q25 -8 57 -18q39 -10 94 -29q57 -23 125 -63q72 -43 105 -82q41 -47 45 -92q2 -13 2 -29q0 -27 -6 -63q-8 -53 -31 -113q-25 -59 -61 -119q-41 -66 -107 -112q-63 -45 -131 -66 q-66 -20 -142 -23h-16q-67 0 -137 19q-80 23 -147 78q-68 57 -97 139q-25 68 -34 137q-10 68 -11 170z" />
<glyph unicode="H" horiz-adv-x="1232" d="M104.5 425q-8.5 30 8 56.5t45.5 32.5l22 6q6 2 17 4q0 14 -2 29q-6 98 -15 238q-4 107 -4 195v56q2 109 4 175l4 63q2 31 24.5 51.5t53.5 18.5t51.5 -24.5t18.5 -53.5l-4 -64q-2 -61 -4 -168v-54q0 -85 4 -189q6 -133 14 -226q27 8 51 17q57 16 142 39q82 23 161 47 q72 23 113 41q45 23 78 41l33 18q14 6 30 8q6 84 13 172q10 113 16 150l4 37q6 29 30.5 47t54.5 14t48.5 -28.5t13.5 -55.5l-6 -35q-4 -33 -14 -143q-10 -109 -14 -211q-6 -106 -19 -215q-12 -109 -29.5 -196t-33.5 -146q-18 -63 -31 -86v-4v-21q2 -31 -18.5 -53t-51 -24 t-53 19.5t-24.5 51.5v21v8q0 33 14 63q6 14 20 66q16 53 33 134t29 183l8 86q-29 -14 -66 -32q-51 -27 -135 -52q-82 -25 -166 -47q-82 -23 -139 -39q-39 -12 -86 -26q2 -16 0 -31q0 -80 -4 -168q-6 -88 -8 -149q-2 -66 -2 -86l-2 -19q-2 -29 -25.5 -49t-54.5 -18 t-50.5 25.5t-17.5 54.5l2 18q0 16 2 78q4 66 9 153q4 76 4 144h-6q-31 -8 -56.5 7t-34 45z" />
<glyph unicode="I" horiz-adv-x="436" d="M104 1202l5 82q2 31 25.5 51.5t53 18.5t50 -25.5t18.5 -52.5l-4 -82q-1 -26 -1 -54q0 -56 5 -118q8 -100 18 -207q10 -113 13 -229q0 -113 2 -207q2 -96 4 -146q0 -31 2 -51l16 -16q23 -20 24 -51t-19.5 -53.5t-51.5 -23.5t-53 19l-21 21q-43 41 -43 88q0 14 -2 63 t-4 145.5t-2 211.5q-2 111 -12 215q-10 109 -18 209q-7 69 -7 132q0 31 2 60z" />
<glyph unicode="J" horiz-adv-x="1034" d="M102 293v16q2 31 25 51.5t53.5 19.5t51 -24.5t18.5 -52.5v-14q0 -6 4 -13q8 -23 25 -55q10 -25 83 -100q72 -74 99 -84q20 -10 55 -4q31 4 92 59q68 61 111 144q43 86 55 149q10 68 12 219q0 154 -6 227q-8 76 -20 209q-10 111 -15 181q-10 -2 -18 -2q-8 -2 -12 -5 l-17 -8q-29 -12 -57.5 -2t-41.5 37t-3 55.5t37 42.5l16 9q29 14 64 16q18 2 41 6q20 27 53 27q25 2 45 -13q33 -10 47 -41q6 -15 6 -29q0 -22 -16 -42l2 -15q4 -70 16 -202q14 -147 19 -211q8 -78 8 -240q-2 -164 -14 -244q-16 -86 -70 -190q-55 -109 -143 -188 q-94 -84 -170 -97q-21 -3 -41 -3q-50 0 -93 18q-53 25 -147 118q-92 94 -113 142q-16 37 -26 63q-16 39 -15 70z" />
<glyph unicode="K" horiz-adv-x="1234" d="M104 1151q-1 37 -1 65q0 64 6 87l4 20q8 31 33.5 47t55 9t46 -33.5t8.5 -55.5l-4 -20q-1 -12 -1 -40.5t1 -74.5q4 -109 8 -235q4 -125 6 -236q0 -18 2 -35q4 4 6 4q8 6 25 21q31 27 80 51q31 16 61 47q45 45 101 90q49 39 90 86q47 49 114 125q72 80 127 127q51 45 78 68 q31 25 51 39l19 10q25 16 54.5 10t46 -31.5t10 -55.5t-30.5 -46l-19 -12q-12 -8 -37 -27q-27 -23 -77 -68q-47 -41 -111 -112q-70 -76 -115 -127q-51 -55 -108 -100q-14 -12 -27 -23q14 -18 41 -53q41 -57 68 -101q20 -35 76 -96q66 -76 81 -110q8 -18 58 -80q55 -72 74 -99 q14 -23 23 -35t22 -24l14 -14q18 -23 17 -53.5t-22.5 -51t-53 -18.5t-52.5 22l-12 17q-16 16 -28.5 32.5t-30.5 42.5q-16 23 -68 89q-57 74 -74 108q-8 16 -59 76q-63 72 -92 119q-23 37 -60 88q-18 25 -32 41q-25 -18 -52 -31q-31 -16 -45 -29q-27 -25 -49 -39 q-18 -10 -31 -18l-14 -8q-16 -10 -37 -11v-45q-2 -127 -4 -196q-2 -66 -2 -103v-69q0 -31 -21.5 -52.5t-52 -21.5t-52 21.5t-21.5 52.5v69q0 39 2 107t4 194q0 123 -2 234t-6 235q-4 125 -9 236z" />
<glyph unicode="L" horiz-adv-x="1251" d="M102 162q0 45 7 166q6 117 14 288q10 172 16 281q4 64 4 119q0 37 -2 70q-4 83 -10 112l-4 33q-6 29 12.5 54.5t48 29.5t54 -13.5t30.5 -48.5l4 -30q6 -37 12 -128q3 -44 2 -93q0 -53 -3 -113q-6 -111 -17 -281q-8 -172 -14 -289q-6 -109 -6 -151h2h119q68 0 211 -8 q78 -4 144 -4h42q78 0 121 -9q53 -8 98 -36q37 -25 94 -86l49 -54q20 -23 19.5 -53.5t-23 -51t-53.5 -19.5t-51 24l-49 55q-43 47 -66 62q-18 10 -41 14q-33 6 -98 6h-35q-73 0 -164 6q-135 6 -198 6h-119q-27 0 -39 1.5t-37.5 11.5t-44.5 28q-27 39 -29 101z" />
<glyph unicode="M" horiz-adv-x="1495" d="M108 200q-5 28 -5 62q0 45 8 100q14 86 32 175q16 84 29 168q12 80 16 129q4 47 5 131v118l-4.5 13.5t7 26t31.5 34.5q36 20 61 20q13 1 23 -5q29 -16 37 -52l10 -35q20 -57 67.5 -168.5t113.5 -246.5q66 -139 98 -217q12 -29 25 -52q18 59 47 117q37 72 90 154 q51 80 110 159q57 78 103 146q49 74 102 141q57 76 96 103q2 2 9.5 7t10.5 6t11 6t12 6t14.5 5t16.5 2t19 -2q66 -6 83 -86q8 -39 9 -147q0 -102 -9 -266q-8 -164 -16 -267q-6 -78 -6 -144v-32q4 -82 4 -139q2 -55 10 -119l6 -69q4 -29 -15 -53.5t-49 -27.5t-54.5 16.5 t-26.5 49.5l-8 68q-6 70 -8 131q-2 57 -6 139v35q0 72 6 156q8 100 16 262t8 260v31q-8 -10 -18 -21q-49 -63 -94 -133q-47 -70 -107 -150q-57 -78 -106 -153q-47 -74 -82 -141q-31 -61 -45 -125q-2 -4 -4.5 -23.5t-6.5 -33t-12 -31t-26.5 -28.5t-43.5 -15q-14 -4 -30.5 0 t-25.5 6t-20.5 12t-16.5 15t-13 15.5t-10 12.5q-45 49 -84 137q-33 76 -96 213q-41 84 -76 162q-4 -39 -11 -86q-14 -86 -30 -176q-18 -84 -31 -168q-8 -45 -7 -79q0 -19 2 -34q7 -41 36 -96l35 -63q14 -27 6 -56.5t-35 -44t-56.5 -5.5t-43.5 36l-35 63q-40 77 -52 141z" />
<glyph unicode="N" horiz-adv-x="1304" d="M102 78v39q0 39 2 100q4 57 7 199q2 143 4 217q2 76 14 209q12 137 37 221q29 86 47 115q20 27 56 37q11 3 22 3q26 0 53 -16q8 -4 14.5 -10t12.5 -13.5t9 -12.5t8 -14t7 -13t7.5 -15.5t7.5 -17.5q25 -51 77 -139q55 -90 146 -226q90 -133 172 -229q84 -98 149 -180 q47 -57 88 -103q-6 88 -6 201q0 127 -10 250q-10 121 -25 231q-16 113 -26 179t-19 104l-6 41q-6 31 11.5 56.5t47 30.5t55.5 -13.5t32 -46.5l6 -41q8 -41 18 -107q10 -68 27 -182q16 -115 27 -242q10 -127 10 -260q0 -127 10 -223q8 -104 8 -139v-9.5t-5 -23t-12 -27.5 t-24.5 -22.5t-40.5 -8.5q-35 0 -67 29q-25 25 -84 86q-61 63 -129 148q-63 80 -148 176q-88 102 -182 241q-92 139 -150 234q-35 57 -59 104q-16 -66 -27 -168q-10 -127 -12 -196q-2 -74 -4 -217t-6 -205q-2 -55 -2 -92v-39q0 -31 -21.5 -52.5t-52.5 -21.5t-52.5 21.5 t-21.5 52.5z" />
<glyph unicode="O" horiz-adv-x="1196" d="M104 344q-2 38 -2 78t2 82q8 88 43 182q33 88 72 178q41 98 109 189q70 94 131 133q65 41 135 49h10l41 6q29 2 53.5 -16.5t28.5 -48.5q0 -14 -4 -29q10 -8 33 -21q35 -18 73.5 -45.5t106.5 -89.5q78 -72 104 -149q23 -63 39 -135q15 -70 15 -143v-9q0 -82 -25 -162 q-23 -76 -55 -137q-35 -68 -107 -125q-59 -47 -102 -82q-51 -39 -109 -63q-59 -29 -135 -31h-6q-74 0 -178 45q-109 49 -187 147q-78 102 -86 197zM252 354q4 -49 55 -116q55 -70 129 -103t116 -33h5q45 2 80 19q41 16 78 45q43 33 100 80q47 37 68 78q27 49 45 114 q18 59 18 117v15q0 52 -12 106q-14 63 -33 119q-14 41 -63 88q-61 55 -93 77.5t-59 36.5q-37 18 -55 35q-20 14 -41 39q-4 4 -8 10q-23 -6 -43 -20q-39 -25 -93 -96q-57 -76 -92 -158q-37 -88 -67 -172q-29 -76 -35 -141q-2 -37 -2 -72t2 -68z" />
<glyph unicode="P" horiz-adv-x="1136" d="M109 848q-6 48 -6 91.5t6 82.5q10 80 26 113q14 31 29 53q16 20 37 39q29 23 104 37q66 14 146 16q80 0 217 -37q143 -39 219 -102q72 -59 110 -121q37 -59 37 -137q0 -20 -2 -41q-12 -94 -59 -166q-43 -66 -117 -127q-72 -59 -158 -103q-90 -43 -186 -53q-51 -6 -88 -6 q-30 0 -51 4q-47 9 -76 23q8 -88 14 -156q8 -78 27 -145q23 -80 22 -107v-16q0 -31 -21.5 -52.5t-51 -21.5t-52 21.5t-22.5 50.5v14q-2 18 -16 72q-23 78 -31 168q-8 84 -19 192l-4 62q-6 76 -14 155q-10 111 -20 197zM254 864q10 -88 22 -198q3 -31 7 -64q2 -2 6 -4l18 -16 q18 -12 33 -23q12 -8 25 -14q8 -4 32 -8q12 -3 32 -3q27 0 69 5q70 8 135 41q70 35 129 82q57 47 88 96q29 43 35 102q1 12 1 23q0 35 -14 57q-27 43 -81 88q-49 43 -162 74q-117 31 -178 31q-63 -2 -115 -13q-31 -6 -45 -12l-8 -8q-6 -8 -15 -27q-6 -14 -14 -72 q-4 -30 -4 -64t4 -73z" />
<glyph unicode="Q" horiz-adv-x="1296" d="M104 471q-2 55 -2 105t2 94q4 94 37 182q31 82 92 186q66 113 148 172q76 55 145 86q61 29 82 35l19 8q27 10 55.5 -3t38.5 -40q6 -14 4 -30q6 -2 10 -4q47 -18 103 -43q59 -29 108 -72q57 -47 92 -143q29 -74 62 -154q39 -92 49 -217q2 -23 2 -46q0 -104 -37 -198 q-41 -111 -123 -213q-57 -74 -112 -115q45 -39 122 -122q80 -86 111 -115q41 -35 55 -57l13 -15q18 -25 14 -55.5t-28.5 -48t-55.5 -13t-49 28.5l-10 14q-8 10 -37 37q-37 33 -121 123q-78 84 -117 117q-25 18 -45 35q-29 -8 -55 -15q-43 -7 -89 -7q-31 0 -63 3 q-76 10 -118 27q-47 16 -111 70q-63 53 -125 165q-59 115 -66 238zM252 479q4 -92 49 -176q47 -88 88 -123q45 -37 68 -45q27 -10 86 -16q16 -2 32 -2q6 29 32 46t55 11l36 -6q25 -4 50 -14q4 2 10 6q53 25 116 106q68 86 103 176q26 66 26 139q0 20 -2 40q-8 102 -36 172 q-35 82 -64 159q-23 59 -49 82q-35 31 -78 51q-49 23 -92 39q-51 20 -78 45q-10 -4 -18 -8q-53 -23 -117 -69q-59 -43 -109 -127q-53 -94 -79 -164q-25 -68 -29 -139q-2 -40 -2 -86t2 -97z" />
<glyph unicode="R" horiz-adv-x="1179" d="M104 1112q6 84 15 109q6 20 16 41q16 39 64 65q43 25 129 25q74 -2 209 -33q137 -33 266 -107q131 -76 196 -153q72 -84 78 -178v-7q0 -97 -106 -215q-66 -71 -140 -108q55 -55 78 -129q23 -66 58 -146q39 -86 53 -129q14 -47 18 -102q4 -45 6 -61v-19q4 -29 -15 -53.5 t-50 -27.5t-54.5 17.5t-25.5 49.5l-2 18q-2 18 -6 66q-2 37 -12 67q-10 35 -48 115q-37 86 -61 160q-16 49 -57 84q-20 18 -41 35q-6 6 -15 12q-46 -4 -88 -4h-28q-100 4 -195 26q14 -86 25 -157q6 -49 7 -91q0 -82 -24 -141l-26 -69q-12 -29 -40 -41.5t-56.5 -1t-41 40 t-0.5 55.5l27 72q13 32 13 84q0 32 -5 71q-14 111 -43 246q-24 30 -24 61q0 15 6 29q-25 119 -43 213q-19 102 -19 177q1 18 2 34zM250 1102q-1 -10 -1 -22q0 -59 17 -152q15 -74 33 -166q53 6 107 6q68 0 149 -31q78 -29 141 -73l2 -2q10 2 19 4q72 14 145 94q68 74 68 110 q0 43 -43 95q-47 57 -158 118q-111 63 -227 93q-117 27 -174 28q-43 0 -58 -6l-4 -4q-4 -8 -8 -18q-4 -16 -8 -74z" />
<glyph unicode="S" horiz-adv-x="1251" d="M105 536.5q6 30.5 30.5 47t55 10.5t47.5 -31l20 -33q18 -25 68 -75q45 -47 149 -101q100 -53 180 -63q25 -2 44 -2q38 0 53 8q29 16 59 53q33 39 55 84q23 45 37 96q2 4 2 11q-23 20 -65 51q-61 47 -150 108q-92 66 -143 109q-47 39 -96 72q-61 43 -123 125 q-61 86 -76 143q-5 21 -5 42q0 54 38 103q43 53 106 84q45 21 120 22q34 0 73 -5q119 -12 231 -60q115 -47 193 -114q78 -70 108 -136l27 -53q14 -27 4 -56.5t-37 -42.5t-56.5 -3t-41.5 37l-27 53q-20 39 -76 90q-57 51 -149 88q-94 39 -193 49q-39 5 -66 5q-33 0 -48 -7 q-31 -14 -52 -41q-8 -12 -6 -20q6 -29 51 -90q47 -63 89 -93q53 -37 104 -79q47 -39 135 -101q92 -63 154 -110q63 -49 88 -70q39 -32 39 -88q0 -30 -11 -66q-18 -63 -47 -120t-73 -111q-47 -57 -101 -88q-47 -26 -125 -26q-27 0 -57 3q-111 10 -235 78q-125 66 -187 129 q-57 59 -84 97l-20 32q-16 25 -10 55.5z" />
<glyph unicode="T" horiz-adv-x="1196" d="M104.5 1192q-6.5 29 10 55.5t45.5 32.5l37 8q43 10 129 19q84 10 198 14q109 6 174 14q68 10 117 19q49 8 98 14q51 8 82 8l25 2q31 0 52.5 -21.5t22.5 -51t-20.5 -52t-52.5 -22.5l-25 -2q-20 0 -63 -6q-47 -6 -96 -15q-49 -8 -119 -18q-33 -4 -74 -8l-2 -41 q-4 -63 -12 -185q-10 -119 -23 -268q-6 -70 -6 -135t6 -127q12 -129 29 -236q16 -113 16 -149v-31q0 -31 -22.5 -52t-52 -21t-51 21.5t-21.5 51.5v31q0 27 -14 129q-16 109 -31 240q-7 68 -7 141t7 151q12 147 21.5 266t13.5 181v25q-88 -6 -156 -13q-78 -8 -111 -16l-36 -8 q-29 -6 -55.5 10t-33 45z" />
<glyph unicode="U" horiz-adv-x="1202" d="M104 776q-2 41 -2 79q0 82 9 151q10 90 12 147l2 61q0 31 23.5 51.5t53 19.5t50 -23.5t20.5 -53.5l-2 -59q-2 -63 -14 -162q-6 -55 -6 -121q0 -39 2 -82q6 -121 20 -221q14 -102 25 -184q8 -72 33 -131q18 -47 32 -55q25 -16 87 -35q49 -15 102 -16q9 0 18 1q70 4 99 11 q25 6 77 39q49 31 95 90q45 61 69 137q27 80 35 166q8 92 10 180q0 92 -3 179t-9 155q-4 70 -6 104q-4 4 -8 13.5t4 32t41 42.5q33 17 55 17q8 -1 14 -3q24 -8 31 -28l8 -23l11 -18q7 -15 7 -30q0 -22 -14 -44q2 -23 5 -53q6 -70 9 -161t3 -183q-2 -96 -12 -195 q-8 -102 -39 -196q-33 -98 -93 -180q-61 -84 -137 -129q-72 -43 -119 -56q-43 -10 -124 -14q-13 -1 -26 -1q-76 0 -146 21q-78 25 -121 52q-55 35 -92 125q-31 76 -43 167q-10 80 -25 185q-14 106 -21 231z" />
<glyph unicode="V" horiz-adv-x="1366" d="M105 1182.5q8 29.5 34.5 45t56 7.5t44.5 -35l45 -76q45 -82 88 -188q37 -100 100 -219q68 -129 88 -201q16 -59 62 -162q27 -61 47 -110q2 8 6 14q39 94 106 231q66 133 111 236q47 106 82 168q31 53 69 162q45 127 70 159l16 25q18 23 48 28t54.5 -12.5t30 -48 t-13.5 -55.5l-16 -23q-12 -23 -49 -122q-43 -123 -82 -187q-31 -53 -74 -153q-47 -106 -113 -242q-66 -133 -104 -223q-41 -96 -66 -140q-2 -4 -7 -9l-17 -17t-24.5 -21.5t-30 -16.5t-30.5 -5t-27.5 15t-24.5 42q-4 12 -27 78q-23 63 -70 168q-49 113 -67 182 q-16 55 -78 172q-66 127 -106 234q-39 96 -80 168l-43 75q-16 27 -8 56.5z" />
<glyph unicode="W" horiz-adv-x="1513" d="M102 1094q-2 31 16.5 54t48.5 27.5t54.5 -15t28.5 -50.5l4 -31q2 -25 33 -137q33 -121 55 -254q23 -127 51 -250q27 -104 53 -202q14 37 27 73q39 106 80 250q45 145 96 297t78 221q27 68 35 90q18 52 44 52q40 0 97 -123l35 -84q25 -164 55 -369q29 -197 68 -311 q14 -49 26 -92q31 78 54 170q29 113 51 227.5t45 257.5q23 139 27 211q1 34 1 55.5t-1 30.5l-2 27q-4 29 15 53t49 27.5t54.5 -16t28.5 -48.5l2 -27q2 -12 2 -32q0 -30 -4 -78q-4 -78 -27 -226q-23 -147 -46 -265t-52 -232q-29 -121 -72 -219q-39 -90 -59 -154 q-4 -4 -12 -11t-28.5 -26.5t-39 -30t-38 -17.5t-33 6.5t-17.5 43.5q0 12 -14 111q-12 92 -51 207q-41 129 -72 338q-20 133 -39 249q-10 -31 -21 -63q-51 -147 -94 -293q-43 -147 -82 -256t-80 -211q0 -4 -1 -9t-5 -21.5t-11 -29t-17.5 -28.5t-24.5 -21.5t-34.5 -9.5 t-45.5 11q-12 6 -21.5 14t-14.5 14t-8 15.5t-3 14.5v10v5q-6 47 -35 154q-29 111 -59 235q-33 127 -55 261q-23 127 -54 239q-33 123 -37 160z" />
<glyph unicode="X" horiz-adv-x="1478" d="M102 1282q-2 31 17.5 53.5t50.5 24.5t55 -19l13 -12q16 -12 110 -104l201 -201q109 -111 188 -209q14 -16 29 -37q12 18 20 33q55 88 138 219q84 133 159 234q80 109 136 145l45 29q25 16 55.5 11t46.5 -30.5t10 -55.5t-30 -46l-46 -31q-35 -23 -100 -110 q-72 -94 -151 -224q-82 -131 -138 -221q-20 -33 -49 -72q29 -37 60 -75q106 -135 176.5 -227.5t99.5 -131.5l31 -41q18 -25 13 -54.5t-28.5 -48t-54.5 -14t-49 28.5l-29 39q-31 41 -100.5 132t-175.5 227q-18 23 -33 41q-20 -25 -41 -54q-123 -156 -180 -221 q-57 -70 -137 -139l-76 -68q-23 -20 -53.5 -18t-51 24.5t-18.5 53t25 51.5l75 67q72 63 125 123q53 63 174 217q33 45 64 84q-31 37 -55 68q-74 92 -179 199q-109 106 -200 196q-90 90 -103 101l-14 12q-23 20 -25 51z" />
<glyph unicode="Y" horiz-adv-x="1187" d="M107 1249.5q10 28.5 37.5 42t56 3t41.5 -37.5l34 -73q33 -70 107 -197q76 -131 135 -237q10 -23 23 -43q18 27 39 53q55 74 127 160q63 78 110 151q49 78 88 164q33 70 35 94v29q0 31 21.5 53.5t51 22.5t52 -21.5t22.5 -52.5v-31q0 -49 -47 -155q-45 -94 -98 -179.5 t-125 -171.5q-68 -80 -121 -151q-47 -63 -69 -105q2 -35 2 -102q0 -86 -2 -159t-4 -159l-5 -86q-2 -31 -24.5 -51t-52 -19t-51 23.5t-19.5 53.5l4 86q2 86 4 156.5t2 154.5v49q-16 14 -26 37q-10 25 -66 127q-59 104 -133 235q-78 133 -113 207l-34 74q-12 27 -2 55.5z" />
<glyph unicode="Z" horiz-adv-x="1175" d="M103.5 1194q5.5 31 29.5 47l17 10q8 8 18 12.5t17.5 7.5t20.5 5t17 2t21.5 1t21.5 3q70 4 166 8q94 2 207 6q113 6 205 11q72 4 114 4h25q33 -2 55 -19q27 -20 34 -44.5t-3 -48t-16 -34t-15 -18.5q-35 -43 -135 -143q-94 -94 -162 -187q-72 -92 -149 -219 q-82 -131 -139 -221q-53 -86 -80 -152q-8 -20 -15 -35q16 2 33 5q98 14 211 26q111 12 189.5 17.5t101.5 5.5h10q33 0 58 -11l14 -4q27 -12 40 -39.5t2 -56.5t-40 -41t-55 0l-15 4h-10q-20 0 -96 -4q-74 -4 -183 -16t-204 -27q-74 -11 -116 -11q-21 0 -34 3q-48 10 -66 54 q-9 24 -10 46q0 19 7 37q12 29 41 103q33 78 92 174q57 90 139 221q82 133 156 231q76 98 176 201q29 27 53 51q-94 -4 -207 -10q-113 -4 -209 -6q-92 -2 -157 -8q-35 -2 -50 -7l-12 -8q-25 -16 -54.5 -11t-47 29.5t-12 55.5z" />
<glyph unicode="a" horiz-adv-x="962" d="M102 338q0 29 15 61q12 27 37 56q23 25 69 55q25 18 33 27q14 16 25 28q27 31 90 45q49 12 96 13q41 0 98 -5q68 -4 97 -18q35 -18 53 -55v45q0 61 -15 135q-14 61 -45 98q-39 45 -104 90q-35 25 -55 31q-16 -6 -27 -12q-20 -14 -53 -41q-29 -27 -66 -72q-45 -59 -90 -94 l-39 -29q-25 -18 -55.5 -15t-49 27.5t-14.5 55.5t29 49l37 29q31 25 65 67q45 57 86 92q39 35 66 52q35 25 82 37q31 2 47 3t42 -11.5t40 -20.5t39 -27q80 -55 131 -114q57 -66 78 -166q18 -86 18 -164q0 -74 -6 -144q-4 -66 -6 -116.5t-2 -91.5q0 -45 -6 -84 q-4 -41 -13 -64l-4 -18q-8 -25 -30.5 -40.5t-49.5 -11.5q-16 -31 -49 -38l-24 -7q-33 -8 -56 -8q-20 0 -85.5 10.5t-139.5 32.5q-82 27 -110 51q-20 14 -62 52q-49 41 -76 82q-31 47 -37 90q-4 33 -4 53zM250 334q0 -10 2 -29q2 -10 14 -29q14 -25 49 -53q39 -33 58 -47 q14 -10 63 -24q63 -20 117 -29q49 -8 63 -8q6 0 21 4l25 6q12 2 26 0l2 8q2 10 6 39t4 66q0 43 2 98q0 27 3 57q-7 -4 -13 -6q-29 -10 -56.5 3t-37.5 42l-12 35q0 2 -33 4q-51 4 -86 4q-31 0 -61 -8q-10 -2 -19 -4q-8 -10 -14 -19q-18 -25 -68 -57q-31 -20 -41 -33 q-10 -8 -12 -16q-2 -2 -2 -4z" />
<glyph unicode="b" horiz-adv-x="966" d="M104 228q-8 30 7.5 56.5t45 35t54.5 -6.5l16 -8q4 -4 27 -12v24q1 18 1 36.5t-1 39.5q-4 45 -10 137q-4 94 -6 172t-2 179v444q0 29 21.5 51.5t52 22.5t52 -22.5t21.5 -51.5v-444q0 -98 2 -174q31 20 57 30q34 13 82 13q19 0 39 -2q61 -8 107 -27q49 -20 110 -80 q68 -66 80 -119q5 -26 6 -76q0 -25 -2 -55q-2 -86 -6 -149q-6 -88 -61 -148q-47 -51 -103 -76q-49 -22 -109 -22h-14q-63 2 -145 37q-57 23 -98 47q-10 -2 -21 0q-25 2 -42 17.5t-23 37.5q-8 4 -17 8q-51 23 -69 33l-17 8q-27 14 -35 44zM391 530q6 -84 8 -127q3 -33 3 -61 q0 -14 -1 -27q0 -41 -4 -77q-2 -13 -2 -25q31 -20 86 -43q57 -25 97 -27q33 0 57 11q27 10 53 41q20 20 23 59q4 59 6 141q1 23 1 42q0 36 -3 52q-6 16 -37 46q-43 41 -66 49q-25 12 -67 16q-35 4 -47 0q-20 -8 -64 -39z" />
<glyph unicode="c" horiz-adv-x="1052" d="M106 352q-4 26 -4 49q0 39 11 70q12 35 37 84q23 43 34 72q25 57 84 86q35 18 119 56t127 56q53 23 123 31q20 2 38 2q53 0 83 -18q27 -14 67 -49q41 -37 72 -78q29 -43 41 -78q14 -39 14 -78v-29q0 -31 -21.5 -52t-52 -21t-52 21.5t-21.5 51.5v29q0 14 -4 29 q-6 16 -25 41q-18 27 -47 51q-25 23 -41 33q-12 0 -37 -2q-47 -4 -80 -19q-41 -18 -123.5 -56t-115.5 -52q-8 -6 -13 -13q-14 -33 -36 -82q-20 -41 -31 -67q-4 -12 0 -43q8 -41 35 -98q20 -47 82 -86q72 -49 127 -72q51 -20 102 -25q33 -4 49 -2q14 6 37 23q35 25 80 49 q16 8 22 14q4 14 7 23l2 20q4 31 27.5 49.5t54 15.5t49 -27.5t16.5 -53.5l-4 -23q-2 -31 -18 -65q-20 -47 -84 -82q-39 -23 -68 -41q-39 -27 -68 -39q-26 -11 -69 -11q-21 0 -47 3q-72 6 -144 37q-70 27 -153 82q-94 63 -135 149q-35 74 -46 135z" />
<glyph unicode="d" horiz-adv-x="999" d="M106 506q10 72 15 110q6 39 12 93q6 63 23 106q18 49 75 109q43 45 56 63q31 43 73 55q12 4 21.5 6.5t21 1.5t18.5 -2t19.5 -5.5t16.5 -5.5t18 -7t17 -6q74 -31 145 -96q39 -35 70 -72q0 4 -2 10q-23 120 -26 220q-1 27 -1 52q0 65 6 111l6 60q4 31 27.5 49t53.5 15 t49.5 -27.5t15.5 -53.5l-7 -59q-4 -35 -4 -87q0 -26 1 -56q3 -90 24 -195q23 -121 24 -201q3 -61 3 -115v-26q-3 -63 -3 -111v-13q0 -41 3 -83v-104q2 -51 2 -95l2 -45q0 -8 -2 -18q10 -10 14 -21q12 -29 1 -57.5t-40 -40.5l-12 -4q-20 -9 -89 -21q-55 -9 -98 -10 q-11 0 -22 1q-51 3 -111 22q-61 16 -143 65q-80 49 -139 105q-63 63 -97 143q-27 72 -34 111q-6 28 -6 67q0 28 3 62zM252 408q6 -29 29 -89q20 -49 61 -88q47 -45 115 -86q66 -39 106 -51q43 -12 78 -14q7 0 15 -1q31 0 71 7h8q-2 6 -2 12v43q-2 45 -4 99v102 q-2 51 -2 100.5t2 114.5v10q-2 4 -4 6l-31 41q-31 43 -69 105q-31 51 -86 100q-53 47 -103 68q-16 6 -30 10q-20 -25 -68 -74q-37 -39 -45 -61q-10 -25 -14 -70q-6 -55 -11 -94q-6 -39 -14 -109q-4 -35 -4 -57q0 -15 2 -24z" />
<glyph unicode="e" horiz-adv-x="966" d="M102 293q0 35 7 84q4 43 6 82v35q-2 14 -2 26q0 9 4 19v6q0 61 16 112q18 59 84 111q41 31 64 59q50 60 132 60h3q66 -2 149 -39q82 -37 133 -88q51 -53 74 -109q4 -14 7 -31.5t2 -40t-16 -43t-42 -30.5q-23 -8 -68 -27q-53 -23 -129 -33q-72 -12 -153 -12q-61 0 -113 2 q-2 -37 -6 -76q-4 -41 -4 -67v-31q18 -18 59 -53q68 -61 156 -88q58 -20 89 -19q11 0 19 2q37 12 78 48q45 41 58 59l8 12l2 10q4 29 28.5 47.5t54 13.5t48 -30.5t14.5 -54.5l-4 -14q-4 -31 -31 -70q-23 -31 -79 -82q-63 -57 -129 -80q-28 -9 -64 -9q-59 0 -137 26 q-117 37 -209 116q-8 8 -28.5 24.5t-30 25t-21.5 23.5t-18.5 31.5t-8.5 37.5q-2 25 -2 55zM266 584q47 -2 107 -2q72 0 131 10q57 8 96 24q10 4 21 9q-10 14 -27 30q-31 31 -90 58q-53 26 -87 26h-3q-14 0 -19 -6q-33 -41 -88 -82q-29 -23 -35 -39q-4 -12 -6 -28z" />
<glyph unicode="f" horiz-adv-x="974" d="M103 867.5q3 29.5 27 49t54 17.5l64 -8q30 -3 59 -3q15 0 29 1q4 70 12 114q8 49 25 111q18 63 35 98q31 61 112 76q32 7 60 7q24 0 45 -5q35 -6 84 -20q55 -14 88 -33q45 -27 63 -66l8 -16q12 -27 1 -56.5t-37.5 -42t-55 -1t-43.5 37.5l-4 13q-4 2 -6 2q-16 10 -53 20 q-43 12 -74 17q-18 4 -49 -2q-6 0 -10 -2q-10 -23 -23 -66q-14 -55 -20 -96q-4 -23 -9 -56h4q29 8 55.5 -8t34 -44.5t-8 -55.5t-46.5 -35l-12 -2q-8 -2 -31 -10q2 -39 4 -80q8 -90 15.5 -148.5t21.5 -134.5q14 -82 23 -155q8 -76 10 -160l2 -80q0 -31 -20.5 -52.5t-51 -22.5 t-53 20.5t-22.5 52.5l-2 80q-2 76 -11 143q-8 72 -20 148q-14 80 -22.5 142t-16.5 157q-2 33 -2 63h-26q-38 0 -79 4l-63 6q-29 4 -48.5 28t-16.5 53.5z" />
<glyph unicode="g" horiz-adv-x="1091" d="M102 520v115q0 49 21 125q23 92 70 129q35 29 112.5 65.5t149.5 49.5q39 7 72 7t59 -7q55 -14 104 -64q41 -43 64 -78l18 -28q10 -17 10 -35q25 -4 44.5 -17.5t30.5 -28t18.5 -36t9.5 -33.5t4 -33.5t2 -25.5q16 -100 53 -226q41 -137 45 -233q1 -14 1 -28q0 -84 -21 -181 q-23 -104 -54 -203q-33 -102 -65 -155q-41 -63 -109 -101q-63 -33 -132 -33h-15q-72 4 -105 21q-16 8 -86 41q-78 35 -153 86q-92 63 -115 141q-18 66 -18 129v54q0 31 21.5 52t52 21t52 -21.5t21.5 -51.5v-54q0 -43 12 -86q8 -29 58 -63q66 -43 131 -74q68 -31 88 -41 q14 -4 49 -6h8q33 0 62 14q33 18 51 49q25 37 51 123q29 92 51 191q17 80 17 149v21q-2 78 -39 196q-23 80 -39 152q-12 -41 -25 -84q-14 -53 -28 -107q-18 -74 -88 -137q-63 -59 -105 -78q-31 -15 -74 -15q-24 0 -51 5q-76 10 -137 70q-53 53 -102 162t-52 196zM250 522 q0 -57 39 -139q37 -82 71 -115q25 -27 56 -30q33 -6 43 0q18 8 63 49q37 35 45 67q14 53 29 109q16 57 33 106q18 51 37 97q14 34 26 57q-31 6 -45 33l-18 28q-14 20 -43 52q-20 20 -39 24q-9 3 -22 3q-18 0 -44 -5q-53 -10 -114 -37q-59 -29 -82 -45q-10 -12 -21 -51 q-14 -61 -14 -90v-113z" />
<glyph unicode="h" horiz-adv-x="972" d="M102 1221q2 59 2 73q6 27 39 23t72 -21l39 -16q1 -18 1 -47t-1 -68q-2 -66 -2 -121q2 -72 4 -135v-2q35 16 74 35q66 29 119 51q68 29 118 31q59 0 103 -31q41 -29 59 -71q10 -29 31 -101q16 -68 31 -131q16 -66 22 -110q8 -43 21 -109q12 -70 22 -129q12 -66 12 -135 q2 -66 2 -139l2 -76q0 -31 -21.5 -52.5t-52 -21.5t-52 21.5t-21.5 50.5l-2 76q0 76 -2 139q0 57 -10 110q-10 59 -23 129q-12 68 -20 111q-6 41 -21 102q-14 61 -31 127q-16 61 -24 82q-2 4 -6 8l-17 3q-23 0 -63 -19q-51 -23 -115 -51q-63 -29 -106 -47q-12 -4 -25 -10 q2 -63 8 -140q10 -147 33 -250q20 -89 20 -170q0 -27 -2 -53l-6 -96q-2 -29 -25.5 -49.5t-53 -18.5t-50 26t-18.5 54l8 94q1 18 1 37q0 68 -17 144q-25 115 -37 272q-8 111 -10 191q-6 23 -7 43v84v114v10v4v3q-3 74 -3 126q0 26 1 46z" />
<glyph unicode="i" horiz-adv-x="450" d="M102 98v23q0 29 9 86q6 49 16 127q10 80 25 155q14 74 34 173q16 88 17 116l-2 39q0 29 20.5 51.5t51 23.5t53 -19.5t22.5 -51.5l2 -37v-8q0 -48 -20 -145q-18 -96 -35 -170q-12 -70 -23 -146q-8 -76 -16 -131q-6 -45 -6 -63v-23q0 -31 -21.5 -52t-52.5 -21t-52.5 21.5 t-21.5 51.5zM142.5 1133.5q-7.5 29.5 9.5 56.5l32 53q16 27 47 34t55.5 -9.5t32 -46t-9.5 -56.5l-33 -55q-16 -25 -45.5 -32t-55 9.5t-33 46z" />
<glyph unicode="j" horiz-adv-x="718" d="M102 -182q2 74 29 129l21 41q14 27 43.5 36t56.5 -4.5t36 -43t-3 -56.5l-23 -41q-12 -25 -12 -61v-15q10 8 18 17q27 25 37 76q14 68 19 118q4 57 8 156q6 102 12 203q6 111 33 231q27 113 31 133l4 21q6 31 31.5 47t55 11t47 -30.5t11.5 -56.5l-4 -20q-6 -23 -33 -138 q-25 -109 -28 -206q-6 -92 -13 -203q-4 -100 -8 -158q-6 -63 -22 -139q-20 -96 -80 -152q-51 -49 -86 -67q-26 -9 -49 -9q-18 0 -34 6q-36 13 -59 44q-39 49 -39 131zM464.5 986q0.5 32 22 52.5t52 20.5t51.5 -21l8 -6q20 -20 20 -52t-21.5 -52.5t-52 -20.5t-50.5 21l-7 6 q-23 20 -22.5 52z" />
<glyph unicode="k" horiz-adv-x="1067" d="M104 330q-2 34 -2 89t2 130q4 150 13 270q8 119 10 215q1 32 1 59q0 53 -3 85l-4 51q-2 31 17.5 54.5t50 25.5t54 -17.5t25.5 -50.5l4 -51q3 -37 3 -95q0 -29 -1 -63q-2 -100 -10 -221q-6 -90 -10 -197q45 20 86 45q55 31 158 74q100 41 211 82q119 45 153 49h23 q31 2 54.5 -17.5t25.5 -50t-18.5 -53t-49.5 -24.5l-23 -2q-25 -6 -114 -39q-109 -41 -205 -80q-94 -41 -143 -68q-55 -31 -115 -59l-12 -4q12 -14 26 -31q51 -57 121 -112q72 -59 111 -86q27 -20 84 -35q63 -16 96 -17h6l19 25q18 23 48.5 28t54 -13.5t28 -49.5t-12.5 -53 l-20 -29q-16 -20 -39 -35q-35 -20 -84 -20q-51 0 -131 20q-86 20 -137 58q-41 31 -115 92q-47 37 -86 76q2 -37 6 -74q4 -57 8 -76l4 -24q8 -29 -9 -54.5t-46 -33t-55.5 10t-32.5 46.5l-4 22q-6 29 -12 97q-6 63 -9 131z" />
<glyph unicode="l" horiz-adv-x="495" d="M107.5 -6q11.5 29 37.5 43l15 4q12 25 30 80q31 98 35 186q2 34 2 75q0 68 -6 155q-8 139 -14 231q-3 40 -3 81q0 62 7 126q10 102 18 145t15 68l4 22q8 29 33.5 45.5t55.5 9t46 -33t8 -55.5l-4 -23q-6 -20 -12 -59q-6 -37 -19 -136q-6 -51 -5 -100q0 -39 3 -78l15 -235 q6 -91 6 -164q0 -44 -2 -82q-6 -106 -43 -221q-2 -8 -9.5 -34t-10.5 -34t-12 -28.5t-16.5 -29.5t-20.5 -20.5t-30 -17.5l-24 -12q-29 -12 -57.5 -2t-41 37.5t-1 56.5z" />
<glyph unicode="m" horiz-adv-x="1464" d="M106 63l11 13q2 31 6 90t22 229q15 154 15 241v11q-4 92 -10 158q-4 53 -7 67l-4 15q-8 29 6 55.5t43 36.5q27 6 51.5 -5t36.5 -34q39 37 84 43q25 4 50 -2q51 -10 94 -35q47 -27 110 -129q55 -88 84 -143q27 -57 52 -146q8 -29 16 -57q2 20 4 39q12 139 45 219 q35 86 92 137q57 50 124 50q17 0 34 -3q78 -16 115 -69q29 -41 51 -139q20 -84 43 -201q25 -117 43 -197q18 -84 26 -139q6 -53 11 -96q4 -45 6 -82l2 -33q2 -31 -18.5 -53.5t-51 -23.5t-53 19.5t-25.5 49.5l-2 35q-2 31 -6 71q-4 43 -10 95q-6 47 -22 124q-20 82 -44 199 q-25 117 -43 199q-16 70 -28 88q-2 4 -25 8q-12 4 -28 -12q-33 -27 -54 -82q-25 -59 -37 -178q-12 -129 -30 -248q-16 -123 -45 -203q0 -4 -1 -9t-4 -21.5t-9.5 -29t-16.5 -26.5t-23.5 -20.5t-34 -3t-44.5 17.5q-10 6 -18.5 13t-11.5 13.5t-5 13.5t-3 10t0 7l1 4 q-4 33 -4 84q0 47 -2 107q-2 53 -19 129q-16 78 -37 155q-20 74 -43 119q-23 47 -76 131q-43 66 -61 80q-20 12 -45 17q-6 -2 -12 -11q-20 -20 -21 -90v-47q0 -71 4 -143v-21q0 -102 -35 -217q-35 -106 -45 -188q0 -2 1 -8.5t2.5 -23.5t-2 -30.5t-9.5 -32t-18 -24.5 t-31.5 -12t-48.5 6q-47 16 -60.5 36.5t-1.5 32.5z" />
<glyph unicode="n" horiz-adv-x="1044" d="M104 41q2 88 37 235q33 133 43 230q12 100 21 182q10 76 10 88v19q0 31 21.5 52t51 21t52 -21.5t22.5 -51.5v-19q0 -23 -10 -106q-4 -39 -10 -78q29 90 70 149q53 76 137 99q37 10 75 10q42 0 85 -12q74 -23 122 -62q59 -43 89 -129q23 -66 23 -164q0 -18 -1 -37 q-4 -119 -22 -198q-18 -72 -31 -133q-12 -63 -21 -101l-10 -37q-6 -29 -32.5 -44t-56.5 -8t-45 33t-9 56l10 35q8 33 20 94q12 66 29 140q16 63 21 168q1 17 1 33q0 74 -16 116q-14 43 -37 59q-29 23 -77 37q-20 5 -40 5t-38 -5q-33 -8 -56 -41q-31 -43 -53 -123 q-27 -94 -67 -198q-37 -94 -54 -184q-20 -111 -69 -195l-49 -53q-48 -43 -80 -43q-39 0 -54 63q-4 17 -4 57q0 26 2 62z" />
<glyph unicode="o" horiz-adv-x="1079" d="M102 522q4 47 13 84q6 33 18 68q8 29 19 76q14 61 36 98q31 47 103 70q51 16 153 36q72 16 122 16q11 0 20 -1q16 18 41.5 21t46.5 -7l26 -16q31 -16 80 -47q63 -41 90 -93q18 -35 58 -135q43 -106 49 -203q1 -15 1 -30q0 -87 -40 -160q-43 -82 -123 -139 q-86 -61 -237 -62q-143 0 -232 41q-84 41 -133 94q-53 55 -84 148q-27 82 -27 134v7zM250 510q0 -26 20 -82q18 -61 49 -94q33 -33 91 -62q55 -26 160 -26h8q104 0 151 33q51 37 80 90q21 41 21 90q0 10 -1 20q-4 74 -38 160q-37 94 -52 123q-8 14 -39 33l-24 16 q-23 -8 -45 -2l-45 12q-8 2 -20 2q-32 0 -91 -12q-96 -20 -139 -35q-16 -4 -25 -10q-8 -14 -16 -49q-10 -51 -23 -86q-8 -31 -14 -60q-8 -34 -8 -61z" />
<glyph unicode="p" horiz-adv-x="911" d="M104 53q6 111 19 193q14 90 67 186q-2 53 -2 90q-2 14 -2 29q-6 72 -18 154q-14 102 -18 133l-5 28q-4 31 14.5 55.5t48.5 28.5t54.5 -14t28.5 -49l4 -29q4 -27 16 -113q14 25 29 48q39 53 74 88q47 49 139 57q17 2 33 2q69 0 127 -35q25 -14 37 -22.5t28.5 -26.5 t24.5 -41q4 -18 6 -32.5t0 -32t-4 -26.5t-9.5 -33.5t-9.5 -37.5q-23 -96 -30 -145q-6 -53 -15 -100q-10 -55 -34 -105q-31 -61 -107 -100q-66 -35 -143 -47q-32 -5 -59 -5q-33 0 -60 7q2 -61 8 -113q8 -115 19 -174q10 -68 12 -129q2 -32 2 -57t-2 -43q-4 -37 -31 -58 q-27 -23 -53.5 -22.5t-43 10.5t-32.5 30.5t-22.5 31t-10.5 20.5v2q-70 96 -78 197q-5 50 -5 108q0 44 3 92zM338 313q4 -2 6 -2l31 -12q16 -4 61 2q51 8 94 31q35 18 45 37q14 31 21 63q8 43 14 96q8 57 33 160q12 49 16 76q-10 8 -20 14q-27 15 -60 15h-12q-37 -4 -49 -17 q-27 -27 -57 -69q-29 -39 -41 -78q-14 -49 -31 -107q-14 -55 -51 -125v-84z" />
<glyph unicode="q" horiz-adv-x="1097" d="M104 557q-1 14 -1 29q0 84 38 178q49 113 138 176q86 57 173 70q28 5 55 5q58 0 114 -20q78 -25 153 -92q24 21 50 21q15 0 30 -6q27 -12 39 -41t0 -56l-6 -16q-4 -14 -8 -55q8 -23 14 -45q27 -100 27 -181v-20q0 -23 -2 -47q-2 -63 -3 -152q1 -34 3 -67l30 -13 q29 -10 41 -38.5t2 -55.5q-14 -41 -59 -47q8 -55 16 -102q31 -160 37 -227.5t6 -86.5q0 -41 -38 -43h-7q-34 0 -67 17l-39 18q-4 25 -29 166q-25 143 -33 248q-2 20 -4 45q-18 2 -55 10q-45 8 -60 6q-15 -1 -34 -1t-41 1q-39 2 -56 2q-31 0 -99.5 22.5t-145.5 80.5 q-80 61 -126 144t-53 173zM250 571q6 -61 35.5 -116.5t85.5 -96.5q59 -43 104 -59q39 -12 53 -14q20 0 62 -2q37 -2 59 0h11q33 0 85 -9q4 -2 11 -2q-6 39 -11 78q-4 37 -8 72q-14 134 -14 224q0 36 2 65q2 6 2 16q-8 12 -14 25q-16 23 -35 39q-53 49 -105 65q-33 11 -67 11 q-17 0 -34 -3q-52 -8 -110 -47q-53 -37 -83 -110q-29 -70 -29 -123v-13z" />
<glyph unicode="r" horiz-adv-x="817" d="M104 657q-2 41 -2 73t2 54q4 45 11 84l4 37q4 31 28.5 49.5t55 13.5t49 -30t12.5 -53l-4 -37q-6 -35 -8 -74q-2 -31 -2 -84q18 14 39 39q55 61 114 86q49 20 80 27q22 7 50 7q23 0 49 -5q51 -10 73 -19l15 -6q29 -12 41 -39.5t0.5 -56.5t-40 -40t-57.5 -1l-14 6 q-10 4 -43 10q-27 4 -37 2q-20 -6 -61 -22q-27 -10 -60 -47q-51 -59 -112 -90q-12 -6 -23 -13l-4 -8q0 -12 2 -26q8 -92 14 -154q8 -66 9 -190l2 -123q0 -29 -21.5 -51.5t-52.5 -22.5t-52.5 21.5t-21.5 52.5l-2 123q0 117 -6 174q-8 63 -16 155q-8 96 -11 178z" />
<glyph unicode="s" horiz-adv-x="989" d="M104 313q-6 29 10.5 54.5t46 33t55.5 -10t32 -46.5l8 -37q8 -23 59 -94q59 -78 84 -94q12 -8 50 -2q53 8 106 35q53 25 94 63q33 31 51 55q-14 10 -32 19q-76 41 -156 86q-94 55 -135 119q-35 55 -49 90q-12 31 -23 59q-12 35 -26 111q-15 77 -15 112q0 44 23 82 q25 47 96 66q36 10 77 10q18 0 36 -2q66 -6 149 -55q80 -43 137 -97q63 -57 84 -104l15 -33q14 -27 2.5 -55.5t-38 -41.5t-56 -2t-41.5 38l-15 33q-10 18 -51 57q-43 41 -109 76q-57 33 -92 36q-35 4 -61 -4q-4 0 -8 -2v-6q0 -18 10 -80q14 -68 22 -90q8 -27 21 -53 q8 -23 37 -66q20 -35 84 -69q76 -45 151 -84q8 -4 27.5 -14.5t28 -14.5t21.5 -14t22.5 -21.5t15.5 -25.5q10 -20 10 -43q0 -38 -28 -84q-29 -45 -86 -97q-55 -53 -127 -88q-74 -35 -152 -47q-24 -4 -46 -4q-61 0 -106 29q-45 31 -118 129q-76 100 -86 151z" />
<glyph unicode="t" horiz-adv-x="882" d="M102 834.5q0 29.5 20.5 52t51.5 22.5l88 2q86 2 176 2q18 0 35 2v19q0 72 2 100v31q0 31 21.5 52.5t52.5 21.5t52.5 -22.5t21.5 -53.5v-31q-2 -31 -2 -102v-6q29 2 47 4l30 4q31 2 54.5 -17.5t27.5 -49t-15.5 -53.5t-49.5 -28l-31 -2q-25 -4 -63 -8v-147q2 -94 10 -197 q10 -109 16 -229q6 -121 6 -156v-35q0 -31 -22.5 -52t-52 -21t-51 21.5t-21.5 51.5v35q0 31 -6 148.5t-15 222.5q-10 109 -10 209q-2 86 -2 143q-16 -2 -35 -2q-88 0 -174 -2l-86 -2q-31 0 -53.5 21.5t-22.5 51z" />
<glyph unicode="u" horiz-adv-x="1001" d="M104 332q-2 40 -2 91t2 114q4 119 9 237q4 125 8 152l2 24q6 29 30.5 47.5t54.5 14.5t48 -30t14 -54l-4 -25q-4 -18 -6 -133q-4 -119 -8 -240q-2 -60 -2 -108t2 -84q2 -74 14 -162q12 -74 37 -108q12 -16 23 -29q16 6 36 16q70 33 136 74q59 39 120 117q41 53 68 100 q12 23 21 45q8 20 14 43q2 55 4 115q4 119 6 184q-2 4 -4 12.5t-3 28t5 33.5t28.5 22.5t61.5 1.5q33 -4 52.5 -19t22.5 -32.5t2 -34t-7 -26.5l-4 -10q2 -49 2 -96t-2 -91q-5 -57 -17 -108v-86v-37q2 -70 6 -109q4 -51 13 -108q6 -57 10 -80l4 -23q4 -29 -14.5 -54.5 t-48 -30.5t-54 13.5t-30.5 49.5l-2 22q-4 25 -13 84q-6 47 -10 92q-74 -92 -151 -143q-74 -47 -154 -82q-4 -2 -21.5 -11t-24.5 -12t-23.5 -8.5t-28 -5.5t-26.5 2t-30 11q-18 8 -35.5 22t-24.5 24.5t-26 37.5q-47 63 -63 174q-14 96 -17 176z" />
<glyph unicode="v" horiz-adv-x="1099" d="M105 874.5q8 30.5 33.5 46t55 7.5t46.5 -33l32 -57q39 -63 74 -160q35 -96 49 -158q10 -49 51 -139q47 -104 78 -225q10 -41 23 -72q12 80 37 160q25 84 61 145q31 51 76 162q51 123 82 170q25 35 39 67l16 35q14 29 43 39t56.5 -3t38 -42t-4.5 -57l-16 -35 q-20 -41 -49 -86q-25 -35 -68 -143q-51 -121 -86 -181q-27 -47 -49 -114q-20 -72 -31 -144q-14 -88 -33 -131q-14 -34 -50 -60q-19 -14 -40 -13q-21 0 -45 12q-35 18 -73 76q-35 51 -70 178q-27 109 -70 200q-47 106 -61 170q-10 51 -43 138q-31 84 -60 135l-34 57 q-16 25 -8 55.5z" />
<glyph unicode="w" horiz-adv-x="1460" d="M102 885q-2 29 17.5 52.5t49.5 26.5t54.5 -16.5t26.5 -50.5l8 -88q8 -86 27 -231q18 -137 59 -240q37 -98 64 -180l8 32q27 117 73 213q45 86 69 139.5t34 78.5q14 33 41 47q27 11 47 11q14 0 24 -5q26 -12 37 -37l11 -27q14 -37 41 -141q23 -96 53 -190q6 -20 18 -62 q43 90 105 215q61 127 104 213q45 92 88 158q37 55 45 76l13 24q12 27 40.5 38t56 -1t39 -41t-0.5 -55l-13 -27q-14 -31 -57 -96q-37 -55 -78 -139q-43 -88 -106 -215q-61 -127 -105 -215q-2 -4 -10 -21.5t-10 -23t-10.5 -19.5t-13.5 -20.5t-14 -16.5t-17.5 -16t-19.5 -11.5 t-26 -9.5q-12 -3 -24 -3q-32 -1 -58 21q-34 28 -44 66q-14 41 -43 135q-27 86 -50 173q-14 -33 -32 -68q-41 -82 -64 -180q-27 -123 -61 -170q-10 -10 -22.5 -21.5t-32 -23t-43 -10.5t-48.5 18q-14 8 -24.5 18.5t-18.5 28.5t-11 24.5t-12.5 35t-9.5 32.5q-29 84 -69 195 q-47 119 -68 274q-20 147 -28 236z" />
<glyph unicode="x" horiz-adv-x="1253" d="M107.5 -18.5q-11.5 28.5 1 56.5t38.5 40l60 24q55 23 141 76q86 51 174 133q45 43 80 80q-51 63 -110 160q-80 125 -140 215l-59 90q-18 27 -12 56.5t31.5 46t55 10.5t48.5 -31l59 -90q61 -92 141 -219q47 -74 89 -127q39 45 81 104q63 84 101 160q45 92 86 129 q33 31 51 43l14 8q25 16 55.5 10t47 -30.5t10.5 -55t-31 -47.5l-14 -8q-8 -6 -35 -29q-18 -18 -51 -86q-43 -86 -115 -182q-57 -78 -106 -133q31 -41 49 -76q25 -51 33 -90q4 -18 8 -31l12 -8q25 -16 31 -47t-11.5 -55.5t-47 -30.5t-54.5 10l-16 11q-37 25 -51 65 q-10 25 -17 60q-2 16 -20 51q-6 12 -19 30q-33 -33 -73 -69q-100 -94 -197 -154q-98 -59 -162 -86l-59 -24q-29 -10 -57.5 1t-40 39.5z" />
<glyph unicode="y" horiz-adv-x="1464" d="M104.5 -381q-6.5 29 10 55.5t47.5 32.5l12 2q23 8 86 45q84 47 158 92q70 45 170 121q94 72 174 154q0 2 -2 6l-6 18q-6 14 -33 62q-37 66 -76 141q-41 78 -74 158q-25 59 -79 188q-51 121 -56 176l-6 48q-2 29 17.5 53t49 27t53 -16t28.5 -50l4 -45q4 -35 45 -135 q47 -111 80 -189q31 -76 69 -147q39 -74 72 -131q14 -29 22 -41q25 31 45 63q72 102 136 199q61 96 110 166q45 70 56 84l10 16q14 25 45 33t56.5 -8.5t32.5 -46t-9 -54.5l-11 -18q-10 -16 -59 -88q-47 -70 -108 -164q-63 -98 -136 -203q-76 -111 -166 -203 q-90 -90 -196 -170q-102 -80 -180 -129q-76 -47 -164 -96q-96 -53 -123 -59l-19 -4q-29 -6 -54 11t-31.5 46z" />
<glyph unicode="z" horiz-adv-x="995" d="M102 873.5q0 29.5 21.5 51t52.5 23.5h45q49 0 121 -10q66 -8 139 -16q76 -10 115 -17q33 -8 78 -12q33 -2 53 -12q27 -12 44 -48q9 -19 9 -36t-8 -33q-6 -12 -13 -23.5t-21.5 -26l-22.5 -22.5t-34 -30.5t-36 -34.5q-100 -92 -178 -176q-74 -80 -125 -154 q-53 -76 -70 -104q-4 -8 -6 -19q23 -2 56 -4q76 -2 149 -4q74 -4 104 -4q35 0 93 -4q53 -4 86 -4q55 0 88 -21l18 -10q25 -16 32 -46t-8.5 -55.5t-45 -33.5t-54.5 8l-14 8q-6 2 -18 2q-39 0 -95 4q-51 4 -82 4q-33 0 -110 4q-74 2 -148 5q-84 4 -127 16q-39 14 -59 50 q-17 30 -17 62q0 6 1 13q4 53 30 100q18 35 74 115q57 84 139 172t187 184q4 4 12 13.5t12 11.5q-35 6 -106 14q-72 10 -139 19q-63 8 -103 8h-45q-29 -2 -51.5 20.5t-22.5 52z" />
<glyph unicode="&#xad;" d="M106.5 499.5q-10.5 28.5 3 56.5t42.5 38l18 8q25 8 90 25q66 14 119 20q51 4 86 4l31 4q35 10 65 7l12 -3q31 -6 48.5 -30.5t13.5 -54t-29.5 -48t-54.5 -14.5l-10 2q-27 -8 -70 -10q-31 0 -80 -4q-43 -4 -98 -17q-55 -14 -72 -20l-20 -6q-29 -10 -56.5 2t-38 40.5z" />
<glyph unicode="&#x2000;" horiz-adv-x="736" />
<glyph unicode="&#x2001;" horiz-adv-x="1473" />
<glyph unicode="&#x2002;" horiz-adv-x="736" />
<glyph unicode="&#x2003;" horiz-adv-x="1473" />
<glyph unicode="&#x2004;" horiz-adv-x="491" />
<glyph unicode="&#x2005;" horiz-adv-x="368" />
<glyph unicode="&#x2006;" horiz-adv-x="245" />
<glyph unicode="&#x2007;" horiz-adv-x="245" />
<glyph unicode="&#x2008;" horiz-adv-x="184" />
<glyph unicode="&#x2009;" horiz-adv-x="294" />
<glyph unicode="&#x200a;" horiz-adv-x="81" />
<glyph unicode="&#x2010;" d="M106.5 499.5q-10.5 28.5 3 56.5t42.5 38l18 8q25 8 90 25q66 14 119 20q51 4 86 4l31 4q35 10 65 7l12 -3q31 -6 48.5 -30.5t13.5 -54t-29.5 -48t-54.5 -14.5l-10 2q-27 -8 -70 -10q-31 0 -80 -4q-43 -4 -98 -17q-55 -14 -72 -20l-20 -6q-29 -10 -56.5 2t-38 40.5z" />
<glyph unicode="&#x2011;" d="M106.5 499.5q-10.5 28.5 3 56.5t42.5 38l18 8q25 8 90 25q66 14 119 20q51 4 86 4l31 4q35 10 65 7l12 -3q31 -6 48.5 -30.5t13.5 -54t-29.5 -48t-54.5 -14.5l-10 2q-27 -8 -70 -10q-31 0 -80 -4q-43 -4 -98 -17q-55 -14 -72 -20l-20 -6q-29 -10 -56.5 2t-38 40.5z" />
<glyph unicode="&#x2012;" d="M106.5 499.5q-10.5 28.5 3 56.5t42.5 38l18 8q25 8 90 25q66 14 119 20q51 4 86 4l31 4q35 10 65 7l12 -3q31 -6 48.5 -30.5t13.5 -54t-29.5 -48t-54.5 -14.5l-10 2q-27 -8 -70 -10q-31 0 -80 -4q-43 -4 -98 -17q-55 -14 -72 -20l-20 -6q-29 -10 -56.5 2t-38 40.5z" />
<glyph unicode="&#x2013;" horiz-adv-x="1225" d="M110 499.5q-20 28.5 5.5 56.5t81.5 38l35 8q48 8 172 25q127 14 229 20q97 4 164 4l60 4q67 10 125 7l23 -3q59 -6 92.5 -30.5t26 -54t-56.5 -48t-105 -14.5l-19 2q-52 -8 -134 -10q-59 0 -153 -4q-83 -4 -188 -17q-106 -14 -139 -20l-38 -6q-56 -10 -108.5 2t-72.5 40.5 z" />
<glyph unicode="&#x2014;" horiz-adv-x="2250" d="M118.5 499.5q-40.5 28.5 11.5 56.5t163 38l69 8q96 8 346 25q253 14 456 20q196 4 330 4l119 4q134 10 249 7l46 -3q119 -6 186 -30.5t52 -54t-113 -48t-209 -14.5l-38 2q-104 -8 -269 -10q-119 0 -307 -4q-165 -4 -376 -17q-211 -14 -276 -20l-77 -6q-111 -10 -216.5 2 t-146 40.5z" />
<glyph unicode="&#x2018;" horiz-adv-x="389" d="M102 883v198q0 66 9 109q8 47 26 78l13 22q16 25 45.5 33t55 -7.5t34 -45t-8.5 -53.5l-10 -23q-6 -8 -10 -33q-6 -29 -6 -80v-198q0 -14 2 -25v-14q4 -29 -14.5 -53.5t-49 -27.5t-54 15.5t-28.5 48.5l-2 15q-2 18 -2 41z" />
<glyph unicode="&#x2019;" horiz-adv-x="505" d="M104 1258q-8 30 8.5 55.5t46 34t56.5 -8.5l45 -26q23 -16 33 -22.5t25.5 -24t23.5 -37.5q8 -23 18 -62q10 -35 21 -73q10 -41 16 -70q10 -39 6 -90q-2 -45 -4 -70l-4 -18q-4 -31 -28.5 -49.5t-54 -13.5t-48 30t-14.5 53l2 21q4 16 6 55q0 31 -4 49q-6 27 -16 64 q-10 39 -19 75q-6 23 -12 39q-8 6 -25 17l-45 26q-25 16 -33 46z" />
<glyph unicode="&#x201c;" horiz-adv-x="763" d="M102 1042q0 37 11 78q10 45 47 90q39 45 88 66l33 12q27 10 55.5 -3t38.5 -40.5t-2.5 -56.5t-40.5 -39l-31 -12q-14 -4 -27 -21q-16 -18 -18 -33q-6 -20 -6 -39q0 -25 6 -69q4 -39 14 -62l13 -32q12 -29 -0.5 -56.5t-40 -39t-56 0t-41.5 39.5l-12 33q-16 41 -24 100 q-6 53 -7 84zM399 924q0 25 2 55q2 31 7 57q6 37 20 64q18 31 55 55q23 16 49 31l21 12q27 14 56.5 6t44 -34.5t6 -56.5t-34.5 -44l-23 -12q-18 -10 -37 -25q-6 -4 -8 -6q-4 -4 -4 -12q-4 -20 -4 -43q-2 -25 -2 -43q2 -12 4 -25l4 -20q6 -29 -10.5 -55.5t-45 -33t-55 10 t-32.5 45.5l-4 20q-6 25 -9 54z" />
<glyph unicode="&#x201d;" horiz-adv-x="788" d="M105 1232.5q8 29.5 34.5 44.5t56 7t44.5 -35l12 -20q14 -27 24 -60q10 -29 15 -47q2 -8 10 -22q10 -23 35 -72q31 -61 37 -110q4 -39 4 -70v-29q0 -31 -22.5 -52.5t-52.5 -21.5t-51.5 21.5t-21.5 52.5v29q0 25 -4 55q-2 23 -20 60q-27 49 -37 71q-14 27 -21 51 q-4 16 -10 41q-6 16 -14 31l-10 21q-16 25 -8 54.5zM408 1257.5q2 30.5 24.5 50t53 17.5t51.5 -25l24 -30q27 -31 60 -72q45 -55 57 -129q8 -59 8 -117q0 -53 -2 -88q-2 -39 -8 -67l-4 -23q-8 -29 -34 -45t-55.5 -9t-46 32.5t-8.5 56.5l4 22q4 14 7 41v80q0 47 -7 95 q-6 35 -26 59q-31 39 -55 68l-27 30q-18 23 -16 53.5z" />
<glyph unicode="&#x202f;" horiz-adv-x="294" />
<glyph unicode="&#x205f;" horiz-adv-x="368" />
<glyph unicode="&#x25fc;" horiz-adv-x="972" d="M0 0v973h973v-973h-973z" />
</font>
</defs>
</svg>
